<svg width="144" height="409" viewBox="0 0 144 409" fill="none" xmlns="http://www.w3.org/2000/svg">
<path d="M27.9639 358.282L29.3055 357.611L29.3016 357.603L27.9639 358.282ZM37.3901 369.231L36.5112 370.447L36.5174 370.451L36.5236 370.456L37.3901 369.231ZM97.2803 374.563L97.77 375.981L97.7778 375.979L97.7856 375.976L97.2803 374.563ZM113.181 363.138L114.401 364.011L114.408 364.001L113.181 363.138ZM116.704 326.29L115.24 326.615L115.241 326.618L116.704 326.29ZM111.277 307.723L111.277 306.223L109.158 306.223L109.862 308.221L111.277 307.723ZM136.033 307.723L137.419 307.151L137.037 306.223L136.033 306.223L136.033 307.723ZM141.46 325.909L139.984 326.176L139.985 326.183L139.987 326.191L141.46 325.909ZM134.319 381.419L135.578 382.235L135.584 382.225L134.319 381.419ZM109.373 401.89L109.947 403.276L109.949 403.275L109.373 401.89ZM2.73193 322.481L4.18476 322.854L4.18676 322.846L4.18869 322.839L2.73193 322.481ZM9.87304 302.486L10.4263 301.092L9.12609 300.576L8.52075 301.837L9.87304 302.486ZM33.8672 312.007L35.2218 312.652L35.9102 311.204L34.4205 310.613L33.8672 312.007ZM23.1313 343.238C23.1313 349.087 24.2828 354.341 26.6261 358.96L29.3016 357.603C27.2016 353.463 26.1313 348.687 26.1313 343.238L23.1313 343.238ZM26.6222 358.953C28.8945 363.497 32.2005 367.33 36.5112 370.447L38.2691 368.016C34.3278 365.166 31.3496 361.699 29.3055 357.611L26.6222 358.953ZM36.5236 370.456C40.8228 373.498 45.9785 375.787 51.9602 377.348L52.7175 374.445C47.0195 372.959 42.2094 370.804 38.2566 368.007L36.5236 370.456ZM51.9602 377.348C57.9463 378.909 64.6465 379.682 72.0483 379.682L72.0483 376.682C64.8506 376.682 58.4111 375.93 52.7175 374.445L51.9602 377.348ZM72.0483 379.682C82.002 379.682 90.5876 378.462 97.77 375.981L96.7905 373.146C90.0081 375.489 81.7724 376.682 72.0483 376.682L72.0483 379.682ZM97.7856 375.976C104.944 373.415 110.514 369.439 114.401 364.011L111.962 362.264C108.485 367.119 103.454 370.761 96.7749 373.151L97.7856 375.976ZM114.408 364.001C118.249 358.542 120.108 351.582 120.108 343.238L117.108 343.238C117.108 351.144 115.349 357.45 111.954 362.274L114.408 364.001ZM120.108 343.238C120.108 337.475 119.461 331.715 118.168 325.961L115.241 326.618C116.486 332.163 117.108 337.702 117.108 343.238L120.108 343.238ZM118.168 325.964C116.883 320.182 115.056 313.935 112.692 307.224L109.862 308.221C112.195 314.841 113.986 320.971 115.24 326.615L118.168 325.964ZM111.277 309.223L136.033 309.223L136.033 306.223L111.277 306.223L111.277 309.223ZM134.646 308.294C137.148 314.363 138.925 320.323 139.984 326.176L142.936 325.642C141.836 319.561 139.995 313.397 137.419 307.151L134.646 308.294ZM139.987 326.191C141.108 332.047 141.674 338.647 141.674 345.999L144.674 345.999C144.674 338.498 144.097 331.704 142.933 325.627L139.987 326.191ZM141.674 345.999C141.674 360.145 138.763 371.65 133.054 380.613L135.584 382.225C141.681 372.653 144.674 360.544 144.674 345.999L141.674 345.999ZM133.06 380.603C127.267 389.539 119.196 396.172 108.796 400.506L109.949 403.275C120.877 398.722 129.437 391.707 135.577 382.235L133.06 380.603ZM108.799 400.504C98.2896 404.857 85.9872 407.055 71.8579 407.055L71.8579 410.055C86.2931 410.055 99.0004 407.81 109.947 403.276L108.799 400.504ZM71.8579 407.055C61.4565 407.055 51.9674 405.645 43.3776 402.844L42.4476 405.697C51.3773 408.608 61.1851 410.055 71.8579 410.055L71.8579 407.055ZM43.3776 402.844C34.7898 400.044 27.383 395.947 21.1352 390.566L19.1773 392.839C25.7518 398.502 33.5159 402.784 42.4476 405.697L43.3776 402.844ZM21.1352 390.566C14.9046 385.199 10.0863 378.564 6.68089 370.639L3.92457 371.823C7.50159 380.148 12.5856 387.161 19.1773 392.839L21.1352 390.566ZM6.68089 370.639C3.28393 362.733 1.56592 353.61 1.56591 343.238L-1.43409 343.238C-1.43408 353.94 0.339116 363.479 3.92457 371.823L6.68089 370.639ZM1.56591 343.238C1.56591 336.449 2.43772 329.655 4.18476 322.854L1.2791 322.108C-0.528546 329.145 -1.43409 336.189 -1.43409 343.238L1.56591 343.238ZM4.18869 322.839C5.87841 315.954 8.22418 309.387 11.2253 303.135L8.52075 301.837C5.42816 308.28 3.01319 315.043 1.27517 322.123L4.18869 322.839ZM9.31977 303.88L33.3139 313.402L34.4205 310.613L10.4263 301.092L9.31977 303.88ZM32.5126 311.363C30.0146 316.615 27.8357 321.902 25.9765 327.223L28.8086 328.213C30.6311 322.997 32.7686 317.81 35.2218 312.652L32.5126 311.363ZM25.9765 327.223C24.0856 332.635 23.1313 337.975 23.1313 343.238L26.1313 343.238C26.1313 338.344 27.0179 333.338 28.8086 328.213L25.9765 327.223ZM6.63573 206.224L8.04157 206.747L8.04288 206.743L6.63573 206.224ZM80.6177 207.747L79.2541 208.372L79.991 209.98L81.4569 208.99L80.6177 207.747ZM141.27 166.805L142.77 166.805L142.77 163.982L140.43 165.561L141.27 166.805ZM141.27 199.559L142.062 200.832L142.77 200.392L142.77 199.559L141.27 199.559ZM87.854 232.789L87.0617 231.515L86.354 231.955L86.354 232.789L87.854 232.789ZM87.854 248.499L86.354 248.499L86.354 249.999L87.854 249.999L87.854 248.499ZM141.27 248.499L142.77 248.499L142.77 246.999L141.27 246.999L141.27 248.499ZM141.27 278.016L141.27 279.516L142.77 279.516L142.77 278.016L141.27 278.016ZM2.06542 278.016L0.565423 278.016L0.565424 279.516L2.06542 279.516L2.06542 278.016ZM26.25 248.499L24.75 248.499L24.75 249.999L26.25 249.999L26.25 248.499ZM63.8599 248.499L63.8599 249.999L65.3599 249.999L65.3599 248.499L63.8599 248.499ZM59.0039 218.03L60.1908 217.113L60.1889 217.111L59.0039 218.03ZM30.4394 218.506L31.7145 219.297L31.7194 219.289L30.4394 218.506ZM3.56542 237.454C3.56542 224.928 5.07809 214.711 8.04156 206.747L5.2299 205.701C2.09962 214.113 0.565421 224.716 0.565422 237.454L3.56542 237.454ZM8.04288 206.743C11.0006 198.733 15.4233 192.895 21.2589 189.105L19.6249 186.589C13.146 190.797 8.36464 197.211 5.22859 205.704L8.04288 206.743ZM21.2589 189.105C27.1133 185.303 34.5846 183.349 43.7695 183.349L43.7695 180.349C34.1654 180.349 26.0849 182.393 19.6249 186.589L21.2589 189.105ZM43.7695 183.349C49.9259 183.349 55.2398 184.518 59.7542 186.805L61.1101 184.129C56.1029 181.592 50.3084 180.349 43.7695 180.349L43.7695 183.349ZM59.7542 186.805C64.3413 189.129 68.2097 192.178 71.3751 195.952L73.6737 194.024C70.2376 189.927 66.0444 186.629 61.1101 184.129L59.7542 186.805ZM71.3751 195.952C74.5915 199.787 77.2165 203.926 79.2541 208.372L81.9813 207.122C79.8294 202.427 77.0589 198.061 73.6737 194.024L71.3751 195.952ZM81.4569 208.99L142.109 168.048L140.43 165.561L79.7784 206.504L81.4569 208.99ZM139.77 166.805L139.77 199.559L142.77 199.559L142.77 166.805L139.77 166.805ZM140.477 198.285L87.0617 231.515L88.6463 234.062L142.062 200.832L140.477 198.285ZM86.354 232.789L86.354 248.499L89.354 248.499L89.354 232.789L86.354 232.789ZM87.854 249.999L141.27 249.999L141.27 246.999L87.854 246.999L87.854 249.999ZM139.77 248.499L139.77 278.016L142.77 278.016L142.77 248.499L139.77 248.499ZM141.27 276.516L2.06542 276.516L2.06542 279.516L141.27 279.516L141.27 276.516ZM3.56542 278.016L3.56542 237.454L0.565422 237.454L0.565423 278.016L3.56542 278.016ZM24.75 239.549L24.75 248.499L27.75 248.499L27.75 239.549L24.75 239.549ZM26.25 249.999L63.8599 249.999L63.8599 246.999L26.25 246.999L26.25 249.999ZM65.3599 248.499L65.3599 238.978L62.3599 238.978L62.3599 248.499L65.3599 248.499ZM65.3599 238.978C65.3599 229.115 63.7422 221.709 60.1908 217.113L57.817 218.947C60.7402 222.73 62.3599 229.289 62.3599 238.978L65.3599 238.978ZM60.1889 217.111C56.5513 212.424 51.2491 210.151 44.5312 210.151L44.5312 213.151C50.5087 213.151 54.8549 215.131 57.8189 218.95L60.1889 217.111ZM44.5312 210.151C37.5478 210.151 32.2911 212.6 29.1595 217.724L31.7194 219.289C34.1738 215.272 38.3116 213.151 44.5312 213.151L44.5312 210.151ZM29.1644 217.716C26.1485 222.583 24.75 229.94 24.75 239.549L27.75 239.549C27.75 230.115 29.1445 223.444 31.7145 219.296L29.1644 217.716ZM141.27 90.3472L141.71 91.7811L142.77 91.4559L142.77 90.3472L141.27 90.3472ZM32.0581 123.863L31.618 122.429L30.5581 122.754L30.5581 123.863L32.0581 123.863ZM32.0581 124.72L30.5581 124.72L30.5581 126.295L32.1312 126.218L32.0581 124.72ZM43.8647 124.148L43.9369 125.647L43.9465 125.646L43.956 125.646L43.8647 124.148ZM141.27 122.911L142.77 122.911L142.77 121.411L141.27 121.411L141.27 122.911ZM141.27 149.285L141.27 150.785L142.77 150.785L142.77 149.285L141.27 149.285ZM2.06542 149.285L0.565418 149.285L0.565418 150.785L2.06542 150.785L2.06542 149.285ZM2.06542 109.104L1.62195 107.672L0.565416 107.999L0.565416 109.104L2.06542 109.104ZM108.516 76.1601L108.959 77.5931L110.016 77.2661L110.016 76.1601L108.516 76.1601ZM108.516 75.5889L110.016 75.5889L110.016 74.5025L108.983 74.1637L108.516 75.5889ZM2.06541 40.645L0.565413 40.645L0.565413 41.7314L1.59758 42.0702L2.06541 40.645ZM2.06541 0.464353L2.06541 -1.03565L0.565411 -1.03565L0.565411 0.464353L2.06541 0.464353ZM141.27 0.464347L142.77 0.464347L142.77 -1.03565L141.27 -1.03565L141.27 0.464347ZM141.27 27.9814L141.27 29.4814L142.77 29.4814L142.77 27.9814L141.27 27.9814ZM60.2417 27.791L60.1917 29.2902L60.2 29.2905L60.2084 29.2906L60.2417 27.791ZM43.9599 27.1245L44.0339 25.6263L44.033 25.6263L43.9599 27.1245ZM32.2485 26.5532L32.3216 25.055L30.7485 24.9783L30.7485 26.5532L32.2485 26.5532ZM32.2485 27.4102L30.7485 27.4102L30.7485 28.4955L31.7794 28.8349L32.2485 27.4102ZM141.27 63.3061L142.77 63.3061L142.77 62.2208L141.739 61.8814L141.27 63.3061ZM140.829 88.9132L31.618 122.429L32.4982 125.297L141.71 91.7811L140.829 88.9132ZM30.5581 123.863L30.5581 124.72L33.5581 124.72L33.5581 123.863L30.5581 123.863ZM32.1312 126.218C34.7333 126.091 38.6684 125.901 43.9369 125.647L43.7925 122.65C38.5239 122.904 34.588 123.095 31.985 123.221L32.1312 126.218ZM43.956 125.646C49.1511 125.329 54.6963 125.044 60.5918 124.79L60.4629 121.793C54.5518 122.047 48.9885 122.333 43.7734 122.651L43.956 125.646ZM60.5918 124.79C66.4785 124.537 71.7885 124.411 76.5234 124.411L76.5234 121.411C71.7368 121.411 66.3828 121.538 60.4629 121.793L60.5918 124.79ZM76.5234 124.411L141.27 124.411L141.27 121.411L76.5234 121.411L76.5234 124.411ZM139.77 122.911L139.77 149.285L142.77 149.285L142.77 122.911L139.77 122.911ZM141.27 147.785L2.06542 147.785L2.06542 150.785L141.27 150.785L141.27 147.785ZM3.56542 149.285L3.56542 109.104L0.565416 109.104L0.565418 149.285L3.56542 149.285ZM2.50889 110.537L108.959 77.5931L108.072 74.7272L1.62195 107.672L2.50889 110.537ZM110.016 76.1601L110.016 75.5889L107.016 75.5889L107.016 76.1601L110.016 76.1601ZM108.983 74.1637L2.53325 39.2198L1.59758 42.0702L108.048 77.014L108.983 74.1637ZM3.56541 40.645L3.56541 0.464353L0.565411 0.464353L0.565413 40.645L3.56541 40.645ZM2.06541 1.96435L141.27 1.96435L141.27 -1.03565L2.06541 -1.03565L2.06541 1.96435ZM139.77 0.464347L139.77 27.9814L142.77 27.9814L142.77 0.464347L139.77 0.464347ZM141.27 26.4814L75.3808 26.4814L75.3808 29.4814L141.27 29.4814L141.27 26.4814ZM75.3808 26.4814C71.0148 26.4814 65.9799 26.4181 60.275 26.2914L60.2084 29.2906C65.9292 29.4178 70.9871 29.4814 75.3808 29.4814L75.3808 26.4814ZM60.2917 26.2918C54.5859 26.1016 49.1667 25.8798 44.0339 25.6263L43.886 28.6227C49.0364 28.877 54.4717 29.0995 60.1917 29.2902L60.2917 26.2918ZM44.033 25.6263C44.0229 25.6258 44.0127 25.6253 44.0025 25.6248C43.9924 25.6243 43.9822 25.6238 43.9721 25.6233C43.9619 25.6228 43.9518 25.6223 43.9417 25.6218C43.9315 25.6213 43.9214 25.6208 43.9113 25.6204C43.9011 25.6199 43.891 25.6193 43.8809 25.6189C43.8708 25.6184 43.8607 25.6179 43.8506 25.6174C43.8405 25.6169 43.8304 25.6164 43.8203 25.6159C43.8102 25.6154 43.8001 25.6149 43.79 25.6144C43.7799 25.6139 43.7698 25.6135 43.7597 25.613C43.7497 25.6125 43.7396 25.612 43.7295 25.6115C43.7195 25.611 43.7094 25.6105 43.6993 25.61C43.6893 25.6095 43.6792 25.609 43.6692 25.6085C43.6591 25.6081 43.6491 25.6076 43.6391 25.6071C43.629 25.6066 43.619 25.6061 43.609 25.6056C43.5989 25.6051 43.5889 25.6046 43.5789 25.6041C43.5689 25.6036 43.5589 25.6031 43.5489 25.6027C43.5389 25.6022 43.5289 25.6017 43.5189 25.6012C43.5089 25.6007 43.4989 25.6002 43.4889 25.5998C43.4789 25.5993 43.4689 25.5988 43.4589 25.5983C43.449 25.5978 43.439 25.5973 43.429 25.5968C43.4191 25.5963 43.4091 25.5959 43.3991 25.5954C43.3892 25.5949 43.3792 25.5944 43.3693 25.5939C43.3593 25.5934 43.3494 25.593 43.3394 25.5925C43.3295 25.592 43.3196 25.5915 43.3096 25.591C43.2997 25.5905 43.2898 25.59 43.2799 25.5896C43.27 25.5891 43.26 25.5886 43.2501 25.5881C43.2402 25.5876 43.2303 25.5871 43.2204 25.5866C43.2105 25.5862 43.2006 25.5857 43.1907 25.5852C43.1809 25.5847 43.171 25.5842 43.1611 25.5838C43.1512 25.5833 43.1413 25.5828 43.1315 25.5823C43.1216 25.5818 43.1117 25.5814 43.1019 25.5809C43.092 25.5804 43.0822 25.5799 43.0723 25.5794C43.0625 25.5789 43.0526 25.5785 43.0428 25.578C43.033 25.5775 43.0231 25.577 43.0133 25.5765C43.0035 25.5761 42.9936 25.5756 42.9838 25.5751C42.974 25.5746 42.9642 25.5742 42.9544 25.5737C42.9446 25.5732 42.9348 25.5727 42.925 25.5722C42.9152 25.5718 42.9054 25.5713 42.8956 25.5708C42.8858 25.5703 42.876 25.5699 42.8662 25.5694C42.8565 25.5689 42.8467 25.5684 42.8369 25.5679C42.8271 25.5675 42.8174 25.567 42.8076 25.5665C42.7979 25.566 42.7881 25.5655 42.7784 25.5651C42.7686 25.5646 42.7589 25.5641 42.7491 25.5637C42.7394 25.5632 42.7297 25.5627 42.7199 25.5622C42.7102 25.5618 42.7005 25.5613 42.6907 25.5608C42.681 25.5603 42.6713 25.5599 42.6616 25.5594C42.6519 25.5589 42.6422 25.5584 42.6325 25.558C42.6228 25.5575 42.6131 25.557 42.6034 25.5565C42.5937 25.5561 42.584 25.5556 42.5744 25.5551C42.5647 25.5547 42.555 25.5542 42.5453 25.5537C42.5357 25.5532 42.526 25.5528 42.5163 25.5523C42.5067 25.5518 42.497 25.5514 42.4874 25.5509C42.4777 25.5504 42.4681 25.55 42.4584 25.5495C42.4488 25.549 42.4392 25.5485 42.4295 25.5481C42.4199 25.5476 42.4103 25.5471 42.4007 25.5467C42.391 25.5462 42.3814 25.5457 42.3718 25.5453C42.3622 25.5448 42.3526 25.5443 42.343 25.5438C42.3334 25.5434 42.3238 25.5429 42.3142 25.5424C42.3046 25.542 42.295 25.5415 42.2855 25.541C42.2759 25.5406 42.2663 25.5401 42.2567 25.5396C42.2472 25.5392 42.2376 25.5387 42.228 25.5382C42.2185 25.5378 42.2089 25.5373 42.1994 25.5368C42.1898 25.5364 42.1803 25.5359 42.1707 25.5355C42.1612 25.535 42.1516 25.5345 42.1421 25.5341C42.1326 25.5336 42.1231 25.5331 42.1135 25.5326C42.104 25.5322 42.0945 25.5317 42.085 25.5313C42.0755 25.5308 42.066 25.5303 42.0565 25.5299C42.047 25.5294 42.0375 25.529 42.028 25.5285C42.0185 25.528 42.009 25.5276 41.9995 25.5271C41.99 25.5266 41.9806 25.5262 41.9711 25.5257C41.9616 25.5252 41.9522 25.5248 41.9427 25.5243C41.9332 25.5239 41.9238 25.5234 41.9143 25.5229C41.9049 25.5225 41.8954 25.522 41.886 25.5215C41.8766 25.5211 41.8671 25.5206 41.8577 25.5202C41.8483 25.5197 41.8388 25.5193 41.8294 25.5188C41.82 25.5183 41.8106 25.5179 41.8012 25.5174C41.7917 25.517 41.7823 25.5165 41.7729 25.516C41.7635 25.5156 41.7541 25.5151 41.7447 25.5147C41.7354 25.5142 41.726 25.5138 41.7166 25.5133C41.7072 25.5128 41.6978 25.5124 41.6885 25.5119C41.6791 25.5115 41.6697 25.511 41.6604 25.5106C41.651 25.5101 41.6416 25.5096 41.6323 25.5092C41.6229 25.5087 41.6136 25.5083 41.6042 25.5078C41.5949 25.5074 41.5856 25.5069 41.5762 25.5064C41.5669 25.506 41.5576 25.5055 41.5482 25.5051C41.5389 25.5046 41.5296 25.5042 41.5203 25.5037C41.511 25.5033 41.5017 25.5028 41.4924 25.5023C41.4831 25.5019 41.4738 25.5015 41.4645 25.501C41.4552 25.5005 41.4459 25.5001 41.4366 25.4996C41.4273 25.4992 41.4181 25.4987 41.4088 25.4983C41.3995 25.4978 41.3902 25.4974 41.381 25.4969C41.3717 25.4965 41.3625 25.496 41.3532 25.4956C41.344 25.4951 41.3347 25.4947 41.3255 25.4942C41.3162 25.4938 41.307 25.4933 41.2978 25.4929C41.2885 25.4924 41.2793 25.492 41.2701 25.4915C41.2608 25.4911 41.2516 25.4906 41.2424 25.4902C41.2332 25.4897 41.224 25.4893 41.2148 25.4888C41.2056 25.4884 41.1964 25.4879 41.1872 25.4875C41.178 25.487 41.1688 25.4866 41.1596 25.4861C41.1504 25.4857 41.1413 25.4852 41.1321 25.4848C41.1229 25.4843 41.1138 25.4839 41.1046 25.4834C41.0954 25.483 41.0863 25.4825 41.0771 25.4821C41.068 25.4817 41.0588 25.4812 41.0497 25.4808C41.0405 25.4803 41.0314 25.4799 41.0223 25.4794C41.0131 25.479 41.004 25.4785 40.9949 25.4781C40.9857 25.4776 40.9766 25.4772 40.9675 25.4767C40.9584 25.4763 40.9493 25.4759 40.9402 25.4754C40.9311 25.475 40.922 25.4745 40.9129 25.4741C40.9038 25.4736 40.8947 25.4732 40.8856 25.4727C40.8765 25.4723 40.8675 25.4719 40.8584 25.4714C40.8493 25.471 40.8402 25.4705 40.8312 25.4701C40.8221 25.4697 40.8131 25.4692 40.804 25.4688C40.7949 25.4683 40.7859 25.4679 40.7769 25.4675C40.7678 25.467 40.7588 25.4666 40.7497 25.4661C40.7407 25.4657 40.7317 25.4652 40.7226 25.4648C40.7136 25.4644 40.7046 25.4639 40.6956 25.4635C40.6866 25.463 40.6776 25.4626 40.6686 25.4622C40.6596 25.4617 40.6506 25.4613 40.6416 25.4608C40.6326 25.4604 40.6236 25.46 40.6146 25.4595C40.6056 25.4591 40.5966 25.4586 40.5877 25.4582C40.5787 25.4578 40.5697 25.4573 40.5607 25.4569C40.5518 25.4565 40.5428 25.456 40.5339 25.4556C40.5249 25.4552 40.516 25.4547 40.507 25.4543C40.4981 25.4539 40.4891 25.4534 40.4802 25.453C40.4713 25.4525 40.4623 25.4521 40.4534 25.4517C40.4445 25.4512 40.4356 25.4508 40.4266 25.4504C40.4177 25.4499 40.4088 25.4495 40.3999 25.4491C40.391 25.4486 40.3821 25.4482 40.3732 25.4477C40.3643 25.4473 40.3554 25.4469 40.3465 25.4465C40.3377 25.446 40.3288 25.4456 40.3199 25.4452C40.311 25.4447 40.3021 25.4443 40.2933 25.4439C40.2844 25.4434 40.2756 25.443 40.2667 25.4426C40.2578 25.4421 40.249 25.4417 40.2401 25.4413C40.2313 25.4409 40.2225 25.4404 40.2136 25.44C40.2048 25.4395 40.196 25.4391 40.1871 25.4387C40.1783 25.4383 40.1695 25.4378 40.1607 25.4374C40.1519 25.437 40.143 25.4365 40.1342 25.4361C40.1254 25.4357 40.1166 25.4352 40.1078 25.4348C40.099 25.4344 40.0902 25.434 40.0815 25.4335C40.0727 25.4331 40.0639 25.4327 40.0551 25.4322C40.0463 25.4318 40.0376 25.4314 40.0288 25.431C40.02 25.4305 40.0113 25.4301 40.0025 25.4297C39.9938 25.4293 39.985 25.4288 39.9763 25.4284C39.9675 25.428 39.9588 25.4275 39.95 25.4271C39.9413 25.4267 39.9326 25.4263 39.9238 25.4258C39.9151 25.4254 39.9064 25.425 39.8977 25.4246C39.889 25.4241 39.8803 25.4237 39.8715 25.4233C39.8628 25.4229 39.8541 25.4225 39.8454 25.422C39.8367 25.4216 39.8281 25.4212 39.8194 25.4207C39.8107 25.4203 39.802 25.4199 39.7933 25.4195C39.7846 25.4191 39.776 25.4186 39.7673 25.4182C39.7586 25.4178 39.75 25.4174 39.7413 25.4169C39.7327 25.4165 39.724 25.4161 39.7154 25.4157C39.7067 25.4152 39.6981 25.4148 39.6894 25.4144C39.6808 25.414 39.6722 25.4136 39.6635 25.4131C39.6549 25.4127 39.6463 25.4123 39.6377 25.4119C39.629 25.4115 39.6204 25.411 39.6118 25.4106C39.6032 25.4102 39.5946 25.4098 39.586 25.4094C39.5774 25.4089 39.5688 25.4085 39.5602 25.4081C39.5517 25.4077 39.5431 25.4073 39.5345 25.4069C39.5259 25.4064 39.5173 25.406 39.5088 25.4056C39.5002 25.4052 39.4917 25.4048 39.4831 25.4044C39.4745 25.4039 39.466 25.4035 39.4574 25.4031C39.4489 25.4027 39.4403 25.4022 39.4318 25.4019C39.4233 25.4014 39.4147 25.401 39.4062 25.4006C39.3977 25.4002 39.3892 25.3997 39.3806 25.3993C39.3721 25.3989 39.3636 25.3985 39.3551 25.3981C39.3466 25.3977 39.3381 25.3973 39.3296 25.3968C39.3211 25.3964 39.3126 25.396 39.3041 25.3956C39.2956 25.3952 39.2871 25.3948 39.2787 25.3944C39.2702 25.3939 39.2617 25.3936 39.2532 25.3931C39.2448 25.3927 39.2363 25.3923 39.2278 25.3919C39.2194 25.3915 39.2109 25.3911 39.2025 25.3907C39.194 25.3903 39.1856 25.3898 39.1772 25.3894C39.1687 25.389 39.1603 25.3886 39.1519 25.3882C39.1434 25.3878 39.135 25.3874 39.1266 25.387C39.1182 25.3865 39.1097 25.3861 39.1013 25.3857C39.0929 25.3853 39.0845 25.3849 39.0761 25.3845C39.0677 25.3841 39.0593 25.3837 39.0509 25.3833C39.0426 25.3828 39.0342 25.3824 39.0258 25.382C39.0174 25.3816 39.009 25.3812 39.0007 25.3808C38.9923 25.3804 38.9839 25.38 38.9756 25.3796C38.9672 25.3792 38.9589 25.3788 38.9505 25.3784C38.9422 25.378 38.9338 25.3776 38.9255 25.3771C38.9171 25.3767 38.9088 25.3763 38.9005 25.3759C38.8921 25.3755 38.8838 25.3751 38.8755 25.3747C38.8672 25.3743 38.8589 25.3739 38.8506 25.3735C38.8423 25.3731 38.8339 25.3727 38.8256 25.3723C38.8173 25.3719 38.809 25.3715 38.8008 25.3711C38.7925 25.3707 38.7842 25.3702 38.7759 25.3698C38.7676 25.3694 38.7594 25.369 38.7511 25.3686C38.7428 25.3682 38.7345 25.3678 38.7263 25.3674C38.718 25.367 38.7098 25.3666 38.7015 25.3662C38.6933 25.3658 38.685 25.3654 38.6768 25.365C38.6685 25.3646 38.6603 25.3642 38.6521 25.3638C38.6439 25.3634 38.6356 25.363 38.6274 25.3626C38.6192 25.3622 38.611 25.3618 38.6028 25.3614C38.5945 25.361 38.5863 25.3606 38.5781 25.3602C38.5699 25.3598 38.5618 25.3594 38.5536 25.359C38.5454 25.3586 38.5372 25.3582 38.529 25.3578C38.5208 25.3574 38.5126 25.357 38.5045 25.3566C38.4963 25.3562 38.4881 25.3558 38.48 25.3554C38.4718 25.355 38.4637 25.3546 38.4555 25.3542C38.4474 25.3538 38.4392 25.3534 38.4311 25.353C38.4229 25.3526 38.4148 25.3522 38.4067 25.3518C38.3985 25.3514 38.3904 25.351 38.3823 25.3506C38.3742 25.3502 38.366 25.3498 38.3579 25.3495C38.3498 25.3491 38.3417 25.3487 38.3336 25.3483C38.3255 25.3479 38.3174 25.3475 38.3093 25.3471C38.3012 25.3467 38.2931 25.3463 38.2851 25.3459C38.277 25.3455 38.2689 25.3451 38.2608 25.3447C38.2528 25.3443 38.2447 25.3439 38.2366 25.3435C38.2286 25.3431 38.2205 25.3427 38.2125 25.3424C38.2044 25.342 38.1964 25.3416 38.1883 25.3412C38.1803 25.3408 38.1723 25.3404 38.1642 25.34C38.1562 25.3396 38.1482 25.3392 38.1401 25.3388C38.1321 25.3384 38.1241 25.338 38.1161 25.3377C38.1081 25.3373 38.1001 25.3369 38.0921 25.3365C38.0841 25.3361 38.0761 25.3357 38.0681 25.3353C38.0601 25.3349 38.0521 25.3345 38.0441 25.3341C38.0361 25.3338 38.0282 25.3334 38.0202 25.333C38.0122 25.3326 38.0043 25.3322 37.9963 25.3318C37.9883 25.3314 37.9804 25.3311 37.9724 25.3307C37.9645 25.3303 37.9565 25.3299 37.9486 25.3295C37.9406 25.3291 37.9327 25.3287 37.9248 25.3283C37.9168 25.3279 37.9089 25.3275 37.901 25.3272C37.8931 25.3268 37.8851 25.3264 37.8772 25.326C37.8693 25.3256 37.8614 25.3252 37.8535 25.3249C37.8456 25.3245 37.8377 25.3241 37.8298 25.3237C37.8219 25.3233 37.814 25.3229 37.8062 25.3225C37.7983 25.3221 37.7904 25.3218 37.7825 25.3214C37.7746 25.321 37.7668 25.3206 37.7589 25.3202C37.7511 25.3199 37.7432 25.3195 37.7353 25.3191C37.7275 25.3187 37.7196 25.3183 37.7118 25.3179C37.704 25.3176 37.6961 25.3172 37.6883 25.3168C37.6804 25.3164 37.6726 25.316 37.6648 25.3156C37.657 25.3153 37.6492 25.3149 37.6413 25.3145C37.6335 25.3141 37.6257 25.3137 37.6179 25.3134C37.6101 25.313 37.6023 25.3126 37.5945 25.3122C37.5867 25.3118 37.5789 25.3115 37.5712 25.3111C37.5634 25.3107 37.5556 25.3103 37.5478 25.3099C37.54 25.3096 37.5323 25.3092 37.5245 25.3088C37.5168 25.3084 37.509 25.308 37.5012 25.3077C37.4935 25.3073 37.4857 25.3069 37.478 25.3065C37.4703 25.3061 37.4625 25.3058 37.4548 25.3054C37.447 25.305 37.4393 25.3047 37.4316 25.3043C37.4239 25.3039 37.4162 25.3035 37.4084 25.3031C37.4007 25.3028 37.393 25.3024 37.3853 25.302C37.3776 25.3016 37.3699 25.3013 37.3622 25.3009C37.3545 25.3005 37.3468 25.3001 37.3391 25.2998C37.3315 25.2994 37.3238 25.299 37.3161 25.2986C37.3084 25.2983 37.3008 25.2979 37.2931 25.2975C37.2854 25.2971 37.2778 25.2968 37.2701 25.2964C37.2625 25.296 37.2548 25.2957 37.2472 25.2953C37.2395 25.2949 37.2319 25.2945 37.2242 25.2942C37.2166 25.2938 37.209 25.2934 37.2014 25.293C37.1937 25.2927 37.1861 25.2923 37.1785 25.2919C37.1709 25.2916 37.1633 25.2912 37.1557 25.2908C37.1481 25.2904 37.1405 25.2901 37.1329 25.2897C37.1253 25.2893 37.1177 25.289 37.1101 25.2886C37.1025 25.2882 37.0949 25.2878 37.0874 25.2875C37.0798 25.2871 37.0722 25.2867 37.0647 25.2864C37.0571 25.286 37.0495 25.2856 37.042 25.2853C37.0344 25.2849 37.0269 25.2845 37.0193 25.2841C37.0118 25.2838 37.0042 25.2834 36.9967 25.283C36.9892 25.2827 36.9816 25.2823 36.9741 25.2819C36.9666 25.2816 36.9591 25.2812 36.9516 25.2808C36.944 25.2805 36.9365 25.2801 36.929 25.2798C36.9215 25.2794 36.914 25.279 36.9065 25.2787C36.899 25.2783 36.8915 25.2779 36.884 25.2776C36.8766 25.2772 36.8691 25.2768 36.8616 25.2765C36.8541 25.2761 36.8467 25.2757 36.8392 25.2754C36.8317 25.275 36.8243 25.2747 36.8168 25.2743C36.8094 25.2739 36.8019 25.2736 36.7945 25.2732C36.787 25.2728 36.7796 25.2725 36.7721 25.2721C36.7647 25.2717 36.7573 25.2714 36.7498 25.271C36.7424 25.2707 36.735 25.2703 36.7276 25.2699C36.7202 25.2696 36.7128 25.2692 36.7053 25.2689C36.6979 25.2685 36.6905 25.2681 36.6831 25.2678C36.6757 25.2674 36.6684 25.267 36.661 25.2667C36.6536 25.2663 36.6462 25.266 36.6388 25.2656C36.6314 25.2652 36.6241 25.2649 36.6167 25.2645C36.6093 25.2642 36.602 25.2638 36.5946 25.2635C36.5873 25.2631 36.5799 25.2627 36.5726 25.2624C36.5652 25.262 36.5579 25.2617 36.5505 25.2613C36.5432 25.2609 36.5359 25.2606 36.5285 25.2602C36.5212 25.2599 36.5139 25.2595 36.5066 25.2592C36.4993 25.2588 36.492 25.2584 36.4846 25.2581C36.4773 25.2577 36.47 25.2574 36.4627 25.257C36.4554 25.2566 36.4482 25.2563 36.4409 25.2559C36.4336 25.2556 36.4263 25.2552 36.419 25.2549C36.4117 25.2545 36.4045 25.2542 36.3972 25.2538C36.3899 25.2534 36.3827 25.2531 36.3754 25.2527C36.3682 25.2524 36.3609 25.252 36.3537 25.2517C36.3464 25.2513 36.3392 25.251 36.3319 25.2506C36.3247 25.2503 36.3175 25.2499 36.3102 25.2496C36.303 25.2492 36.2958 25.2489 36.2886 25.2485C36.2813 25.2482 36.2741 25.2478 36.2669 25.2475C36.2597 25.2471 36.2525 25.2468 36.2453 25.2464C36.2381 25.2461 36.2309 25.2457 36.2237 25.2454C36.2166 25.245 36.2094 25.2447 36.2022 25.2443C36.195 25.244 36.1878 25.2436 36.1807 25.2433C36.1735 25.2429 36.1663 25.2425 36.1592 25.2422C36.152 25.2418 36.1449 25.2415 36.1377 25.2411C36.1306 25.2408 36.1234 25.2404 36.1163 25.2401C36.1092 25.2398 36.102 25.2394 36.0949 25.2391C36.0878 25.2387 36.0806 25.2384 36.0735 25.238C36.0664 25.2377 36.0593 25.2373 36.0522 25.237C36.0451 25.2366 36.038 25.2363 36.0309 25.2359C36.0238 25.2356 36.0167 25.2353 36.0096 25.2349C36.0025 25.2346 35.9954 25.2342 35.9883 25.2339C35.9813 25.2335 35.9742 25.2332 35.9671 25.2328C35.9601 25.2325 35.953 25.2321 35.9459 25.2318C35.9389 25.2314 35.9318 25.2311 35.9248 25.2308C35.9177 25.2304 35.9107 25.2301 35.9036 25.2297C35.8966 25.2294 35.8896 25.2291 35.8825 25.2287C35.8755 25.2284 35.8685 25.228 35.8615 25.2277C35.8545 25.2273 35.8474 25.227 35.8404 25.2266C35.8334 25.2263 35.8264 25.226 35.8194 25.2256C35.8124 25.2253 35.8054 25.2249 35.7984 25.2246C35.7914 25.2243 35.7845 25.2239 35.7775 25.2236C35.7705 25.2232 35.7635 25.2229 35.7566 25.2226C35.7496 25.2222 35.7426 25.2219 35.7357 25.2216C35.7287 25.2212 35.7217 25.2209 35.7148 25.2205C35.7078 25.2202 35.7009 25.2198 35.694 25.2195C35.687 25.2192 35.6801 25.2188 35.6732 25.2185C35.6662 25.2182 35.6593 25.2178 35.6524 25.2175C35.6455 25.2171 35.6386 25.2168 35.6316 25.2165C35.6247 25.2161 35.6178 25.2158 35.6109 25.2154C35.604 25.2151 35.5971 25.2148 35.5902 25.2144C35.5834 25.2141 35.5765 25.2138 35.5696 25.2134C35.5627 25.2131 35.5558 25.2128 35.549 25.2124C35.5421 25.2121 35.5352 25.2118 35.5284 25.2114C35.5215 25.2111 35.5147 25.2108 35.5078 25.2104C35.501 25.2101 35.4941 25.2097 35.4873 25.2094C35.4804 25.2091 35.4736 25.2088 35.4668 25.2084C35.4599 25.2081 35.4531 25.2078 35.4463 25.2074C35.4395 25.2071 35.4326 25.2068 35.4258 25.2064C35.419 25.2061 35.4122 25.2058 35.4054 25.2054C35.3986 25.2051 35.3918 25.2048 35.385 25.2044C35.3782 25.2041 35.3715 25.2038 35.3647 25.2035C35.3579 25.2031 35.3511 25.2028 35.3444 25.2024C35.3376 25.2021 35.3308 25.2018 35.324 25.2015C35.3173 25.2011 35.3105 25.2008 35.3038 25.2005C35.297 25.2001 35.2903 25.1998 35.2835 25.1995C35.2768 25.1992 35.2701 25.1988 35.2633 25.1985C35.2566 25.1982 35.2499 25.1978 35.2432 25.1975C35.2364 25.1972 35.2297 25.1969 35.223 25.1965C35.2163 25.1962 35.2096 25.1959 35.2029 25.1956C35.1962 25.1952 35.1895 25.1949 35.1828 25.1946C35.1761 25.1942 35.1694 25.1939 35.1627 25.1936C35.1561 25.1933 35.1494 25.1929 35.1427 25.1926C35.136 25.1923 35.1294 25.192 35.1227 25.1916C35.116 25.1913 35.1094 25.191 35.1027 25.1907C35.0961 25.1903 35.0894 25.19 35.0828 25.1897C35.0762 25.1894 35.0695 25.1891 35.0629 25.1887C35.0563 25.1884 35.0496 25.1881 35.043 25.1877C35.0364 25.1874 35.0298 25.1871 35.0232 25.1868C35.0165 25.1865 35.0099 25.1862 35.0033 25.1858C34.9967 25.1855 34.9901 25.1852 34.9835 25.1848C34.977 25.1845 34.9704 25.1842 34.9638 25.1839C34.9572 25.1836 34.9506 25.1833 34.9441 25.1829C34.9375 25.1826 34.9309 25.1823 34.9244 25.182C34.9178 25.1816 34.9112 25.1813 34.9047 25.181C34.8981 25.1807 34.8916 25.1804 34.885 25.18C34.8785 25.1797 34.872 25.1794 34.8654 25.1791C34.8589 25.1788 34.8524 25.1785 34.8458 25.1781C34.8393 25.1778 34.8328 25.1775 34.8263 25.1772C34.8198 25.1769 34.8133 25.1765 34.8068 25.1762C34.8003 25.1759 34.7938 25.1756 34.7873 25.1753C34.7808 25.175 34.7743 25.1746 34.7678 25.1743C34.7613 25.174 34.7549 25.1737 34.7484 25.1734C34.7419 25.1731 34.7354 25.1728 34.729 25.1724C34.7225 25.1721 34.7161 25.1718 34.7096 25.1715C34.7031 25.1712 34.6967 25.1709 34.6903 25.1706C34.6838 25.1702 34.6774 25.1699 34.6709 25.1696C34.6645 25.1693 34.6581 25.169 34.6517 25.1687C34.6452 25.1684 34.6388 25.168 34.6324 25.1677C34.626 25.1674 34.6196 25.1671 34.6132 25.1668C34.6068 25.1665 34.6004 25.1662 34.594 25.1659C34.5876 25.1655 34.5812 25.1652 34.5748 25.1649C34.5684 25.1646 34.562 25.1643 34.5557 25.164C34.5493 25.1637 34.5429 25.1634 34.5366 25.1631C34.5302 25.1627 34.5238 25.1624 34.5175 25.1621C34.5111 25.1618 34.5048 25.1615 34.4984 25.1612C34.4921 25.1609 34.4858 25.1606 34.4794 25.1603C34.4731 25.1599 34.4668 25.1596 34.4604 25.1593C34.4541 25.159 34.4478 25.1587 34.4415 25.1584C34.4352 25.1581 34.4289 25.1578 34.4226 25.1575C34.4163 25.1572 34.41 25.1569 34.4037 25.1566C34.3974 25.1562 34.3911 25.1559 34.3848 25.1556C34.3785 25.1553 34.3722 25.155 34.366 25.1547C34.3597 25.1544 34.3534 25.1541 34.3471 25.1538C34.3409 25.1535 34.3346 25.1532 34.3284 25.1529C34.3221 25.1526 34.3159 25.1523 34.3096 25.152C34.3034 25.1517 34.2971 25.1514 34.2909 25.1511C34.2847 25.1508 34.2784 25.1504 34.2722 25.1501C34.266 25.1498 34.2598 25.1495 34.2536 25.1492C34.2473 25.149 34.2411 25.1486 34.2349 25.1483C34.2287 25.148 34.2225 25.1477 34.2163 25.1474C34.2101 25.1471 34.2039 25.1468 34.1978 25.1465C34.1916 25.1462 34.1854 25.1459 34.1792 25.1456C34.173 25.1453 34.1669 25.145 34.1607 25.1447C34.1545 25.1444 34.1484 25.1441 34.1422 25.1438C34.1361 25.1435 34.1299 25.1432 34.1238 25.1429C34.1176 25.1426 34.1115 25.1423 34.1053 25.142C34.0992 25.1417 34.0931 25.1414 34.087 25.1411C34.0808 25.1408 34.0747 25.1405 34.0686 25.1402C34.0625 25.1399 34.0564 25.1396 34.0503 25.1393C34.0442 25.139 34.0381 25.1387 34.032 25.1384C34.0259 25.1381 34.0198 25.1378 34.0137 25.1375C34.0076 25.1372 34.0015 25.137 33.9954 25.1367C33.9894 25.1363 33.9833 25.136 33.9772 25.1358C33.9712 25.1355 33.9651 25.1352 33.9591 25.1349C33.953 25.1346 33.9469 25.1343 33.9409 25.134C33.9349 25.1337 33.9288 25.1334 33.9228 25.1331C33.9167 25.1328 33.9107 25.1325 33.9047 25.1322C33.8987 25.1319 33.8926 25.1316 33.8866 25.1313C33.8806 25.131 33.8746 25.1308 33.8686 25.1305C33.8626 25.1302 33.8566 25.1299 33.8506 25.1296C33.8446 25.1293 33.8386 25.129 33.8326 25.1287C33.8266 25.1284 33.8206 25.1281 33.8147 25.1278C33.8087 25.1275 33.8027 25.1273 33.7967 25.1269C33.7908 25.1267 33.7848 25.1264 33.7789 25.1261C33.7729 25.1258 33.767 25.1255 33.761 25.1252C33.7551 25.1249 33.7491 25.1246 33.7432 25.1244C33.7372 25.124 33.7313 25.1238 33.7254 25.1235C33.7195 25.1232 33.7135 25.1229 33.7076 25.1226C33.7017 25.1223 33.6958 25.122 33.6899 25.1217C33.684 25.1215 33.6781 25.1212 33.6722 25.1209C33.6663 25.1206 33.6604 25.1203 33.6545 25.12C33.6486 25.1197 33.6427 25.1194 33.6368 25.1192C33.631 25.1189 33.6251 25.1186 33.6192 25.1183C33.6134 25.118 33.6075 25.1177 33.6016 25.1174C33.5958 25.1172 33.5899 25.1169 33.5841 25.1166C33.5782 25.1163 33.5724 25.116 33.5666 25.1157C33.5607 25.1154 33.5549 25.1152 33.5491 25.1149C33.5432 25.1146 33.5374 25.1143 33.5316 25.114C33.5258 25.1137 33.52 25.1135 33.5142 25.1132C33.5083 25.1129 33.5025 25.1126 33.4967 25.1123C33.4909 25.1121 33.4852 25.1118 33.4794 25.1115C33.4736 25.1112 33.4678 25.1109 33.462 25.1106C33.4562 25.1103 33.4505 25.1101 33.4447 25.1098C33.4389 25.1095 33.4332 25.1092 33.4274 25.1089C33.4217 25.1087 33.4159 25.1084 33.4102 25.1081C33.4044 25.1078 33.3987 25.1075 33.3929 25.1073C33.3872 25.107 33.3815 25.1067 33.3757 25.1064C33.37 25.1061 33.3643 25.1059 33.3585 25.1056C33.3528 25.1053 33.3471 25.105 33.3414 25.1047C33.3357 25.1045 33.33 25.1042 33.3243 25.1039C33.3186 25.1036 33.3129 25.1034 33.3072 25.1031C33.3015 25.1028 33.2958 25.1025 33.2902 25.1023C33.2845 25.102 33.2788 25.1017 33.2731 25.1014C33.2675 25.1011 33.2618 25.1009 33.2562 25.1006C33.2505 25.1003 33.2448 25.1 33.2392 25.0998C33.2335 25.0995 33.2279 25.0992 33.2223 25.0989C33.2166 25.0987 33.211 25.0984 33.2054 25.0981C33.1997 25.0978 33.1941 25.0976 33.1885 25.0973C33.1829 25.097 33.1773 25.0967 33.1716 25.0965C33.166 25.0962 33.1604 25.0959 33.1548 25.0956C33.1492 25.0954 33.1436 25.0951 33.138 25.0948C33.1325 25.0945 33.1269 25.0943 33.1213 25.094C33.1157 25.0937 33.1101 25.0935 33.1046 25.0932C33.099 25.0929 33.0934 25.0926 33.0879 25.0924C33.0823 25.0921 33.0768 25.0918 33.0712 25.0916C33.0657 25.0913 33.0601 25.091 33.0546 25.0908C33.049 25.0905 33.0435 25.0902 33.038 25.0899C33.0324 25.0897 33.0269 25.0894 33.0214 25.0891C33.0159 25.0889 33.0104 25.0886 33.0049 25.0883C32.9993 25.0881 32.9938 25.0878 32.9883 25.0875C32.9828 25.0872 32.9773 25.087 32.9719 25.0867C32.9664 25.0865 32.9609 25.0862 32.9554 25.0859C32.9499 25.0857 32.9444 25.0854 32.939 25.0851C32.9335 25.0848 32.928 25.0846 32.9226 25.0843C32.9171 25.084 32.9117 25.0838 32.9062 25.0835C32.9008 25.0832 32.8953 25.083 32.8899 25.0827C32.8844 25.0825 32.879 25.0822 32.8736 25.0819C32.8681 25.0817 32.8627 25.0814 32.8573 25.0811C32.8519 25.0809 32.8465 25.0806 32.841 25.0803C32.8356 25.0801 32.8302 25.0798 32.8248 25.0796C32.8194 25.0793 32.814 25.079 32.8086 25.0788C32.8033 25.0785 32.7979 25.0782 32.7925 25.078C32.7871 25.0777 32.7817 25.0774 32.7764 25.0772C32.771 25.0769 32.7656 25.0767 32.7603 25.0764C32.7549 25.0761 32.7495 25.0759 32.7442 25.0756C32.7388 25.0753 32.7335 25.0751 32.7281 25.0748C32.7228 25.0746 32.7175 25.0743 32.7121 25.0741C32.7068 25.0738 32.7015 25.0735 32.6962 25.0733C32.6908 25.073 32.6855 25.0727 32.6802 25.0725C32.6749 25.0722 32.6696 25.072 32.6643 25.0717C32.659 25.0715 32.6537 25.0712 32.6484 25.0709C32.6431 25.0707 32.6378 25.0704 32.6325 25.0702C32.6273 25.0699 32.622 25.0697 32.6167 25.0694C32.6114 25.0691 32.6062 25.0689 32.6009 25.0686C32.5956 25.0684 32.5904 25.0681 32.5851 25.0679C32.5799 25.0676 32.5746 25.0673 32.5694 25.0671C32.5642 25.0668 32.5589 25.0666 32.5537 25.0663C32.5485 25.0661 32.5432 25.0658 32.538 25.0655C32.5328 25.0653 32.5276 25.0651 32.5224 25.0648C32.5171 25.0645 32.5119 25.0643 32.5067 25.064C32.5015 25.0638 32.4963 25.0635 32.4911 25.0633C32.486 25.063 32.4808 25.0628 32.4756 25.0625C32.4704 25.0623 32.4652 25.062 32.4601 25.0618C32.4549 25.0615 32.4497 25.0612 32.4445 25.061C32.4394 25.0608 32.4342 25.0605 32.4291 25.0602C32.4239 25.06 32.4188 25.0597 32.4136 25.0595C32.4085 25.0592 32.4034 25.059 32.3982 25.0587C32.3931 25.0585 32.388 25.0582 32.3828 25.058C32.3777 25.0577 32.3726 25.0575 32.3675 25.0572C32.3624 25.057 32.3573 25.0567 32.3522 25.0565C32.3471 25.0562 32.342 25.056 32.3369 25.0558C32.3318 25.0555 32.3267 25.0553 32.3216 25.055L32.1754 28.0514C32.1805 28.0517 32.1856 28.0519 32.1907 28.0522C32.1958 28.0524 32.2009 28.0527 32.206 28.0529C32.2111 28.0532 32.2162 28.0534 32.2213 28.0537C32.2264 28.0539 32.2316 28.0542 32.2367 28.0544C32.2418 28.0547 32.2469 28.0549 32.2521 28.0552C32.2572 28.0554 32.2623 28.0557 32.2675 28.0559C32.2726 28.0562 32.2778 28.0564 32.2829 28.0567C32.2881 28.0569 32.2932 28.0572 32.2984 28.0574C32.3035 28.0577 32.3087 28.0579 32.3139 28.0582C32.3191 28.0584 32.3242 28.0587 32.3294 28.059C32.3346 28.0592 32.3398 28.0594 32.345 28.0597C32.3502 28.06 32.3554 28.0602 32.3606 28.0605C32.3658 28.0607 32.371 28.061 32.3762 28.0612C32.3814 28.0615 32.3866 28.0617 32.3918 28.062C32.3971 28.0623 32.4023 28.0625 32.4075 28.0628C32.4128 28.063 32.418 28.0633 32.4232 28.0635C32.4285 28.0638 32.4337 28.064 32.439 28.0643C32.4442 28.0645 32.4495 28.0648 32.4547 28.0651C32.46 28.0653 32.4653 28.0656 32.4705 28.0658C32.4758 28.0661 32.4811 28.0663 32.4864 28.0666C32.4917 28.0669 32.4969 28.0671 32.5022 28.0674C32.5075 28.0676 32.5128 28.0679 32.5181 28.0681C32.5234 28.0684 32.5287 28.0687 32.534 28.0689C32.5394 28.0692 32.5447 28.0695 32.55 28.0697C32.5553 28.07 32.5606 28.0702 32.566 28.0705C32.5713 28.0707 32.5766 28.071 32.582 28.0713C32.5873 28.0715 32.5927 28.0718 32.598 28.072C32.6034 28.0723 32.6087 28.0726 32.6141 28.0728C32.6195 28.0731 32.6248 28.0734 32.6302 28.0736C32.6356 28.0739 32.6409 28.0742 32.6463 28.0744C32.6517 28.0747 32.6571 28.0749 32.6625 28.0752C32.6679 28.0755 32.6733 28.0757 32.6787 28.076C32.6841 28.0763 32.6895 28.0765 32.6949 28.0768C32.7003 28.0771 32.7057 28.0773 32.7111 28.0776C32.7165 28.0778 32.722 28.0781 32.7274 28.0784C32.7328 28.0786 32.7383 28.0789 32.7437 28.0792C32.7492 28.0794 32.7546 28.0797 32.76 28.08C32.7655 28.0802 32.7709 28.0805 32.7764 28.0807C32.7819 28.081 32.7873 28.0813 32.7928 28.0815C32.7983 28.0818 32.8038 28.0821 32.8092 28.0824C32.8147 28.0826 32.8202 28.0829 32.8257 28.0832C32.8312 28.0834 32.8367 28.0837 32.8422 28.0839C32.8477 28.0842 32.8532 28.0845 32.8587 28.0848C32.8642 28.085 32.8697 28.0853 32.8752 28.0856C32.8808 28.0858 32.8863 28.0861 32.8918 28.0864C32.8973 28.0867 32.9029 28.0869 32.9084 28.0872C32.914 28.0875 32.9195 28.0877 32.925 28.088C32.9306 28.0883 32.9361 28.0886 32.9417 28.0888C32.9473 28.0891 32.9528 28.0894 32.9584 28.0896C32.964 28.0899 32.9695 28.0902 32.9751 28.0905C32.9807 28.0907 32.9863 28.091 32.9919 28.0913C32.9975 28.0915 33.0031 28.0918 33.0087 28.0921C33.0143 28.0923 33.0199 28.0926 33.0255 28.0929C33.0311 28.0932 33.0367 28.0934 33.0423 28.0937C33.0479 28.094 33.0536 28.0943 33.0592 28.0945C33.0648 28.0948 33.0705 28.0951 33.0761 28.0954C33.0817 28.0956 33.0874 28.0959 33.093 28.0962C33.0987 28.0965 33.1043 28.0967 33.11 28.097C33.1156 28.0973 33.1213 28.0976 33.127 28.0979C33.1327 28.0981 33.1383 28.0984 33.144 28.0987C33.1497 28.099 33.1554 28.0992 33.1611 28.0995C33.1667 28.0998 33.1724 28.1001 33.1781 28.1003C33.1838 28.1006 33.1895 28.1009 33.1952 28.1012C33.2009 28.1015 33.2067 28.1017 33.2124 28.102C33.2181 28.1023 33.2238 28.1026 33.2296 28.1029C33.2353 28.1031 33.241 28.1034 33.2468 28.1037C33.2525 28.104 33.2582 28.1042 33.264 28.1045C33.2697 28.1048 33.2755 28.1051 33.2812 28.1054C33.287 28.1056 33.2928 28.106 33.2985 28.1062C33.3043 28.1065 33.3101 28.1068 33.3159 28.1071C33.3216 28.1074 33.3274 28.1076 33.3332 28.1079C33.339 28.1082 33.3448 28.1085 33.3506 28.1088C33.3564 28.109 33.3622 28.1093 33.368 28.1096C33.3738 28.1099 33.3796 28.1102 33.3854 28.1105C33.3912 28.1107 33.3971 28.111 33.4029 28.1113C33.4087 28.1116 33.4146 28.1119 33.4204 28.1122C33.4262 28.1125 33.4321 28.1127 33.4379 28.113C33.4438 28.1133 33.4496 28.1136 33.4555 28.1139C33.4613 28.1142 33.4672 28.1144 33.4731 28.1147C33.4789 28.115 33.4848 28.1153 33.4907 28.1156C33.4966 28.1159 33.5024 28.1162 33.5083 28.1165C33.5142 28.1168 33.5201 28.117 33.526 28.1173C33.5319 28.1176 33.5378 28.1179 33.5437 28.1182C33.5496 28.1185 33.5555 28.1188 33.5614 28.119C33.5674 28.1194 33.5733 28.1196 33.5792 28.1199C33.5851 28.1202 33.5911 28.1205 33.597 28.1208C33.6029 28.1211 33.6089 28.1214 33.6148 28.1216C33.6208 28.1219 33.6267 28.1222 33.6327 28.1225C33.6386 28.1228 33.6446 28.1231 33.6506 28.1234C33.6565 28.1237 33.6625 28.124 33.6685 28.1243C33.6745 28.1246 33.6804 28.1248 33.6864 28.1251C33.6924 28.1254 33.6984 28.1257 33.7044 28.126C33.7104 28.1263 33.7164 28.1266 33.7224 28.1269C33.7284 28.1272 33.7344 28.1275 33.7404 28.1278C33.7465 28.1281 33.7525 28.1284 33.7585 28.1287C33.7645 28.129 33.7706 28.1292 33.7766 28.1295C33.7826 28.1298 33.7887 28.1301 33.7947 28.1304C33.8008 28.1307 33.8068 28.131 33.8129 28.1313C33.8189 28.1316 33.825 28.1319 33.8311 28.1322C33.8371 28.1325 33.8432 28.1328 33.8493 28.1331C33.8554 28.1334 33.8614 28.1337 33.8675 28.134C33.8736 28.1343 33.8797 28.1346 33.8858 28.1349C33.8919 28.1352 33.898 28.1355 33.9041 28.1358C33.9102 28.1361 33.9163 28.1363 33.9224 28.1367C33.9285 28.137 33.9347 28.1373 33.9408 28.1375C33.9469 28.1378 33.953 28.1381 33.9592 28.1385C33.9653 28.1388 33.9715 28.139 33.9776 28.1393C33.9837 28.1396 33.9899 28.1399 33.9961 28.1403C34.0022 28.1406 34.0084 28.1408 34.0145 28.1411C34.0207 28.1414 34.0269 28.1418 34.033 28.1421C34.0392 28.1424 34.0454 28.1427 34.0516 28.143C34.0578 28.1432 34.064 28.1436 34.0702 28.1439C34.0763 28.1442 34.0825 28.1445 34.0888 28.1448C34.095 28.1451 34.1012 28.1454 34.1074 28.1457C34.1136 28.146 34.1198 28.1463 34.126 28.1466C34.1323 28.1469 34.1385 28.1472 34.1447 28.1475C34.151 28.1478 34.1572 28.1481 34.1635 28.1484C34.1697 28.1487 34.1759 28.149 34.1822 28.1493C34.1885 28.1496 34.1947 28.1499 34.201 28.1502C34.2072 28.1505 34.2135 28.1508 34.2198 28.1511C34.2261 28.1515 34.2323 28.1518 34.2386 28.1521C34.2449 28.1524 34.2512 28.1527 34.2575 28.153C34.2638 28.1533 34.2701 28.1536 34.2764 28.1539C34.2827 28.1542 34.289 28.1545 34.2953 28.1548C34.3016 28.1551 34.308 28.1555 34.3143 28.1558C34.3206 28.1561 34.3269 28.1564 34.3333 28.1567C34.3396 28.157 34.3459 28.1573 34.3523 28.1576C34.3586 28.1579 34.365 28.1582 34.3713 28.1586C34.3777 28.1589 34.384 28.1592 34.3904 28.1595C34.3968 28.1598 34.4031 28.1601 34.4095 28.1604C34.4159 28.1607 34.4223 28.161 34.4286 28.1613C34.435 28.1616 34.4414 28.162 34.4478 28.1623C34.4542 28.1626 34.4606 28.1629 34.467 28.1632C34.4734 28.1635 34.4798 28.1638 34.4862 28.1641C34.4926 28.1645 34.4991 28.1648 34.5055 28.1651C34.5119 28.1654 34.5183 28.1657 34.5248 28.166C34.5312 28.1663 34.5376 28.1667 34.5441 28.167C34.5505 28.1673 34.557 28.1676 34.5634 28.1679C34.5699 28.1682 34.5763 28.1685 34.5828 28.1689C34.5893 28.1692 34.5957 28.1695 34.6022 28.1698C34.6087 28.1701 34.6152 28.1704 34.6216 28.1708C34.6281 28.1711 34.6346 28.1714 34.6411 28.1717C34.6476 28.172 34.6541 28.1724 34.6606 28.1727C34.6671 28.173 34.6736 28.1733 34.6801 28.1736C34.6866 28.1739 34.6932 28.1743 34.6997 28.1746C34.7062 28.1749 34.7127 28.1752 34.7193 28.1755C34.7258 28.1758 34.7323 28.1762 34.7389 28.1765C34.7454 28.1768 34.752 28.1771 34.7585 28.1775C34.7651 28.1778 34.7716 28.1781 34.7782 28.1784C34.7848 28.1787 34.7913 28.179 34.7979 28.1793C34.8045 28.1797 34.811 28.18 34.8176 28.1803C34.8242 28.1807 34.8308 28.181 34.8374 28.1813C34.844 28.1816 34.8506 28.1819 34.8572 28.1822C34.8638 28.1826 34.8704 28.1829 34.877 28.1832C34.8836 28.1835 34.8902 28.1839 34.8968 28.1842C34.9035 28.1845 34.9101 28.1848 34.9167 28.1851C34.9234 28.1855 34.93 28.1858 34.9366 28.1861C34.9433 28.1865 34.9499 28.1868 34.9566 28.1871C34.9632 28.1874 34.9699 28.1877 34.9765 28.1881C34.9832 28.1884 34.9899 28.1887 34.9965 28.1891C35.0032 28.1894 35.0099 28.1897 35.0166 28.19C35.0233 28.1904 35.0299 28.1907 35.0366 28.191C35.0433 28.1913 35.05 28.1916 35.0567 28.192C35.0634 28.1923 35.0701 28.1927 35.0768 28.193C35.0836 28.1933 35.0903 28.1936 35.097 28.194C35.1037 28.1943 35.1104 28.1946 35.1172 28.1949C35.1239 28.1953 35.1306 28.1956 35.1374 28.1959C35.1441 28.1963 35.1509 28.1966 35.1576 28.1969C35.1644 28.1972 35.1711 28.1976 35.1779 28.1979C35.1846 28.1982 35.1914 28.1985 35.1982 28.1989C35.205 28.1992 35.2117 28.1996 35.2185 28.1999C35.2253 28.2002 35.2321 28.2005 35.2389 28.2009C35.2457 28.2012 35.2525 28.2015 35.2593 28.2019C35.2661 28.2022 35.2729 28.2025 35.2797 28.2029C35.2865 28.2032 35.2933 28.2035 35.3001 28.2039C35.3069 28.2042 35.3138 28.2045 35.3206 28.2049C35.3274 28.2052 35.3343 28.2055 35.3411 28.2059C35.3479 28.2062 35.3548 28.2065 35.3616 28.2069C35.3685 28.2072 35.3753 28.2075 35.3822 28.2079C35.3891 28.2082 35.3959 28.2085 35.4028 28.2089C35.4097 28.2092 35.4165 28.2095 35.4234 28.2099C35.4303 28.2102 35.4372 28.2105 35.4441 28.2109C35.451 28.2112 35.4579 28.2115 35.4648 28.2119C35.4717 28.2122 35.4786 28.2126 35.4855 28.2129C35.4924 28.2133 35.4993 28.2136 35.5062 28.2139C35.5131 28.2143 35.5201 28.2146 35.527 28.2149C35.5339 28.2153 35.5409 28.2156 35.5478 28.2159C35.5547 28.2163 35.5617 28.2166 35.5686 28.2169C35.5756 28.2173 35.5825 28.2176 35.5895 28.218C35.5965 28.2183 35.6034 28.2187 35.6104 28.219C35.6174 28.2193 35.6243 28.2197 35.6313 28.22C35.6383 28.2204 35.6453 28.2207 35.6523 28.221C35.6593 28.2214 35.6663 28.2217 35.6732 28.2221C35.6802 28.2224 35.6872 28.2227 35.6943 28.2231C35.7013 28.2234 35.7083 28.2238 35.7153 28.2241C35.7223 28.2245 35.7293 28.2248 35.7364 28.2252C35.7434 28.2255 35.7504 28.2258 35.7575 28.2262C35.7645 28.2265 35.7716 28.2269 35.7786 28.2272C35.7857 28.2275 35.7927 28.2279 35.7998 28.2282C35.8068 28.2286 35.8139 28.2289 35.821 28.2293C35.828 28.2296 35.8351 28.2299 35.8422 28.2303C35.8493 28.2306 35.8563 28.231 35.8634 28.2313C35.8705 28.2317 35.8776 28.232 35.8847 28.2324C35.8918 28.2327 35.8989 28.2331 35.906 28.2334C35.9131 28.2338 35.9202 28.2341 35.9274 28.2345C35.9345 28.2348 35.9416 28.2352 35.9487 28.2355C35.9559 28.2358 35.963 28.2362 35.9701 28.2365C35.9773 28.2369 35.9844 28.2372 35.9916 28.2376C35.9987 28.2379 36.0059 28.2383 36.013 28.2386C36.0202 28.239 36.0273 28.2393 36.0345 28.2397C36.0417 28.24 36.0488 28.2404 36.056 28.2407C36.0632 28.2411 36.0704 28.2414 36.0776 28.2418C36.0848 28.2421 36.092 28.2425 36.0991 28.2428C36.1064 28.2432 36.1136 28.2435 36.1208 28.2439C36.128 28.2443 36.1352 28.2446 36.1424 28.245C36.1496 28.2453 36.1568 28.2457 36.1641 28.246C36.1713 28.2464 36.1785 28.2467 36.1858 28.2471C36.193 28.2474 36.2002 28.2478 36.2075 28.2481C36.2147 28.2485 36.222 28.2488 36.2292 28.2492C36.2365 28.2495 36.2438 28.2499 36.251 28.2502C36.2583 28.2506 36.2656 28.2509 36.2728 28.2513C36.2801 28.2517 36.2874 28.252 36.2947 28.2524C36.302 28.2527 36.3093 28.2531 36.3166 28.2534C36.3239 28.2538 36.3312 28.2541 36.3385 28.2545C36.3458 28.2549 36.3531 28.2552 36.3604 28.2556C36.3677 28.2559 36.3751 28.2563 36.3824 28.2566C36.3897 28.257 36.397 28.2574 36.4044 28.2577C36.4117 28.2581 36.4191 28.2584 36.4264 28.2588C36.4337 28.2592 36.4411 28.2595 36.4485 28.2599C36.4558 28.2602 36.4632 28.2606 36.4705 28.261C36.4779 28.2613 36.4853 28.2617 36.4927 28.262C36.5 28.2624 36.5074 28.2628 36.5148 28.2631C36.5222 28.2635 36.5296 28.2638 36.537 28.2642C36.5444 28.2646 36.5518 28.2649 36.5592 28.2653C36.5666 28.2657 36.574 28.266 36.5814 28.2664C36.5888 28.2667 36.5963 28.2671 36.6037 28.2675C36.6111 28.2678 36.6185 28.2682 36.626 28.2686C36.6334 28.2689 36.6408 28.2693 36.6483 28.2696C36.6557 28.27 36.6632 28.2704 36.6706 28.2707C36.6781 28.2711 36.6856 28.2714 36.693 28.2718C36.7005 28.2722 36.708 28.2725 36.7154 28.2729C36.7229 28.2733 36.7304 28.2736 36.7379 28.274C36.7454 28.2743 36.7529 28.2747 36.7604 28.2751C36.7678 28.2754 36.7754 28.2758 36.7829 28.2762C36.7904 28.2765 36.7979 28.2769 36.8054 28.2773C36.8129 28.2776 36.8204 28.278 36.8279 28.2784C36.8355 28.2787 36.843 28.2791 36.8505 28.2795C36.8581 28.2799 36.8656 28.2802 36.8732 28.2806C36.8807 28.281 36.8883 28.2813 36.8958 28.2817C36.9034 28.2821 36.9109 28.2824 36.9185 28.2828C36.9261 28.2832 36.9336 28.2835 36.9412 28.2839C36.9488 28.2843 36.9564 28.2847 36.9639 28.285C36.9715 28.2854 36.9791 28.2858 36.9867 28.2861C36.9943 28.2865 37.0019 28.2869 37.0095 28.2873C37.0171 28.2876 37.0247 28.288 37.0323 28.2884C37.04 28.2887 37.0476 28.2891 37.0552 28.2895C37.0628 28.2899 37.0704 28.2902 37.0781 28.2906C37.0857 28.291 37.0934 28.2913 37.101 28.2917C37.1086 28.2921 37.1163 28.2924 37.124 28.2928C37.1316 28.2932 37.1393 28.2936 37.1469 28.2939C37.1546 28.2943 37.1623 28.2947 37.1699 28.2951C37.1776 28.2954 37.1853 28.2958 37.193 28.2962C37.2007 28.2966 37.2083 28.2969 37.216 28.2973C37.2237 28.2977 37.2314 28.2981 37.2391 28.2985C37.2468 28.2988 37.2546 28.2992 37.2623 28.2996C37.27 28.3 37.2777 28.3003 37.2854 28.3007C37.2931 28.3011 37.3009 28.3014 37.3086 28.3018C37.3163 28.3022 37.3241 28.3026 37.3318 28.303C37.3396 28.3033 37.3473 28.3037 37.3551 28.3041C37.3628 28.3045 37.3706 28.3049 37.3783 28.3052C37.3861 28.3056 37.3939 28.306 37.4017 28.3064C37.4094 28.3068 37.4172 28.3071 37.425 28.3075C37.4328 28.3079 37.4406 28.3083 37.4484 28.3087C37.4561 28.309 37.4639 28.3094 37.4717 28.3098C37.4796 28.3102 37.4874 28.3105 37.4952 28.3109C37.503 28.3113 37.5108 28.3117 37.5186 28.3121C37.5264 28.3125 37.5343 28.3128 37.5421 28.3132C37.5499 28.3136 37.5578 28.314 37.5656 28.3144C37.5735 28.3148 37.5813 28.3152 37.5892 28.3155C37.597 28.3159 37.6049 28.3163 37.6127 28.3167C37.6206 28.317 37.6285 28.3174 37.6364 28.3178C37.6442 28.3182 37.6521 28.3186 37.66 28.319C37.6679 28.3194 37.6758 28.3198 37.6836 28.3201C37.6915 28.3205 37.6994 28.3209 37.7073 28.3213C37.7152 28.3217 37.7232 28.322 37.7311 28.3224C37.739 28.3228 37.7469 28.3232 37.7548 28.3236C37.7627 28.324 37.7707 28.3244 37.7786 28.3248C37.7865 28.3252 37.7945 28.3255 37.8024 28.3259C37.8104 28.3263 37.8183 28.3267 37.8263 28.3271C37.8342 28.3275 37.8422 28.3279 37.8501 28.3282C37.8581 28.3286 37.866 28.329 37.874 28.3294C37.882 28.3298 37.89 28.3302 37.898 28.3306C37.9059 28.331 37.9139 28.3314 37.9219 28.3318C37.9299 28.3321 37.9379 28.3325 37.9459 28.3329C37.9539 28.3333 37.9619 28.3337 37.9699 28.3341C37.9779 28.3345 37.986 28.3349 37.994 28.3353C38.002 28.3357 38.01 28.3361 38.0181 28.3365C38.0261 28.3368 38.0341 28.3372 38.0422 28.3376C38.0502 28.338 38.0583 28.3384 38.0663 28.3388C38.0744 28.3392 38.0824 28.3396 38.0905 28.34C38.0985 28.3404 38.1066 28.3408 38.1147 28.3412C38.1227 28.3415 38.1308 28.3419 38.1389 28.3423C38.147 28.3427 38.1551 28.3431 38.1632 28.3435C38.1713 28.3439 38.1793 28.3443 38.1875 28.3447C38.1956 28.3451 38.2037 28.3455 38.2118 28.3459C38.2199 28.3463 38.228 28.3467 38.2361 28.3471C38.2442 28.3475 38.2524 28.3479 38.2605 28.3483C38.2686 28.3487 38.2768 28.3491 38.2849 28.3495C38.293 28.3498 38.3012 28.3502 38.3093 28.3506C38.3175 28.351 38.3257 28.3514 38.3338 28.3518C38.342 28.3522 38.3501 28.3527 38.3583 28.3531C38.3665 28.3535 38.3747 28.3538 38.3828 28.3542C38.391 28.3546 38.3992 28.355 38.4074 28.3554C38.4156 28.3558 38.4238 28.3562 38.432 28.3566C38.4402 28.357 38.4484 28.3574 38.4566 28.3578C38.4648 28.3582 38.473 28.3586 38.4812 28.359C38.4895 28.3594 38.4977 28.3598 38.5059 28.3603C38.5141 28.3607 38.5224 28.361 38.5306 28.3614C38.5389 28.3618 38.5471 28.3622 38.5554 28.3627C38.5636 28.3631 38.5719 28.3635 38.5801 28.3639C38.5884 28.3643 38.5966 28.3647 38.6049 28.3651C38.6132 28.3655 38.6215 28.3659 38.6297 28.3663C38.638 28.3667 38.6463 28.3671 38.6546 28.3675C38.6629 28.3679 38.6712 28.3683 38.6795 28.3687C38.6878 28.3691 38.6961 28.3695 38.7044 28.3699C38.7127 28.3703 38.721 28.3707 38.7293 28.3712C38.7377 28.3715 38.746 28.3719 38.7543 28.3724C38.7626 28.3728 38.771 28.3732 38.7793 28.3736C38.7876 28.374 38.796 28.3744 38.8043 28.3748C38.8127 28.3752 38.8211 28.3756 38.8294 28.376C38.8378 28.3764 38.8461 28.3768 38.8545 28.3773C38.8629 28.3777 38.8712 28.378 38.8796 28.3785C38.888 28.3789 38.8964 28.3793 38.9048 28.3797C38.9132 28.3801 38.9216 28.3805 38.93 28.3809C38.9384 28.3813 38.9468 28.3817 38.9552 28.3822C38.9636 28.3826 38.972 28.383 38.9804 28.3834C38.9888 28.3838 38.9973 28.3842 39.0057 28.3846C39.0141 28.385 39.0226 28.3854 39.031 28.3859C39.0394 28.3863 39.0479 28.3867 39.0563 28.3871C39.0648 28.3875 39.0732 28.3879 39.0817 28.3883C39.0901 28.3887 39.0986 28.3892 39.1071 28.3896C39.1155 28.39 39.124 28.3904 39.1325 28.3908C39.141 28.3912 39.1495 28.3916 39.1579 28.3921C39.1664 28.3925 39.1749 28.3929 39.1834 28.3933C39.1919 28.3937 39.2004 28.3941 39.2089 28.3945C39.2174 28.395 39.226 28.3954 39.2345 28.3958C39.243 28.3962 39.2515 28.3966 39.26 28.397C39.2686 28.3975 39.2771 28.3979 39.2856 28.3983C39.2942 28.3987 39.3027 28.3991 39.3113 28.3995C39.3198 28.3999 39.3284 28.4004 39.3369 28.4008C39.3455 28.4012 39.354 28.4016 39.3626 28.402C39.3712 28.4025 39.3798 28.4029 39.3883 28.4033C39.3969 28.4037 39.4055 28.4041 39.4141 28.4045C39.4227 28.405 39.4313 28.4054 39.4399 28.4058C39.4485 28.4062 39.4571 28.4066 39.4657 28.4071C39.4743 28.4075 39.4829 28.4079 39.4915 28.4083C39.5001 28.4087 39.5087 28.4091 39.5174 28.4096C39.526 28.41 39.5346 28.4104 39.5433 28.4109C39.5519 28.4113 39.5605 28.4117 39.5692 28.4121C39.5778 28.4125 39.5865 28.413 39.5952 28.4134C39.6038 28.4138 39.6125 28.4142 39.6211 28.4146C39.6298 28.4151 39.6385 28.4155 39.6472 28.4159C39.6558 28.4163 39.6645 28.4167 39.6732 28.4172C39.6819 28.4176 39.6906 28.418 39.6993 28.4185C39.708 28.4189 39.7167 28.4193 39.7254 28.4197C39.7341 28.4202 39.7428 28.4206 39.7515 28.421C39.7602 28.4214 39.7689 28.4218 39.7777 28.4223C39.7864 28.4227 39.7951 28.4231 39.8039 28.4235C39.8126 28.424 39.8213 28.4244 39.8301 28.4248C39.8388 28.4253 39.8476 28.4257 39.8564 28.4261C39.8651 28.4265 39.8739 28.427 39.8826 28.4274C39.8914 28.4278 39.9002 28.4282 39.9089 28.4287C39.9177 28.4291 39.9265 28.4295 39.9353 28.43C39.9441 28.4304 39.9529 28.4308 39.9617 28.4312C39.9705 28.4317 39.9793 28.4321 39.9881 28.4326C39.9969 28.433 40.0057 28.4334 40.0145 28.4338C40.0233 28.4343 40.0321 28.4347 40.041 28.4351C40.0498 28.4355 40.0586 28.436 40.0675 28.4364C40.0763 28.4369 40.0851 28.4373 40.094 28.4377C40.1028 28.4381 40.1117 28.4386 40.1205 28.439C40.1294 28.4394 40.1383 28.4399 40.1471 28.4403C40.156 28.4407 40.1649 28.4412 40.1737 28.4416C40.1826 28.442 40.1915 28.4425 40.2004 28.4429C40.2093 28.4433 40.2181 28.4438 40.227 28.4442C40.2359 28.4446 40.2448 28.4451 40.2537 28.4455C40.2626 28.4459 40.2716 28.4464 40.2805 28.4468C40.2894 28.4472 40.2983 28.4477 40.3072 28.4481C40.3162 28.4485 40.3251 28.449 40.334 28.4494C40.343 28.4499 40.3519 28.4503 40.3608 28.4507C40.3698 28.4512 40.3787 28.4516 40.3877 28.452C40.3967 28.4525 40.4056 28.4529 40.4146 28.4533C40.4235 28.4538 40.4325 28.4542 40.4415 28.4546C40.4505 28.4551 40.4594 28.4555 40.4684 28.456C40.4774 28.4564 40.4864 28.4568 40.4954 28.4573C40.5044 28.4577 40.5134 28.4582 40.5224 28.4586C40.5314 28.459 40.5404 28.4595 40.5494 28.4599C40.5584 28.4604 40.5674 28.4608 40.5765 28.4612C40.5855 28.4617 40.5945 28.4621 40.6036 28.4626C40.6126 28.463 40.6216 28.4634 40.6307 28.4639C40.6397 28.4643 40.6488 28.4648 40.6578 28.4652C40.6669 28.4657 40.6759 28.4661 40.685 28.4665C40.6941 28.467 40.7031 28.4674 40.7122 28.4679C40.7213 28.4683 40.7304 28.4687 40.7395 28.4692C40.7485 28.4696 40.7576 28.4701 40.7667 28.4705C40.7758 28.471 40.7849 28.4714 40.794 28.4719C40.8031 28.4723 40.8122 28.4727 40.8213 28.4732C40.8305 28.4736 40.8396 28.4741 40.8487 28.4745C40.8578 28.475 40.8669 28.4754 40.8761 28.4759C40.8852 28.4763 40.8944 28.4767 40.9035 28.4772C40.9126 28.4777 40.9218 28.4781 40.9309 28.4785C40.9401 28.479 40.9493 28.4794 40.9584 28.4799C40.9676 28.4803 40.9768 28.4808 40.9859 28.4812C40.9951 28.4817 41.0043 28.4821 41.0135 28.4826C41.0226 28.483 41.0318 28.4835 41.041 28.4839C41.0502 28.4843 41.0594 28.4848 41.0686 28.4853C41.0778 28.4857 41.087 28.4861 41.0963 28.4866C41.1055 28.4871 41.1147 28.4875 41.1239 28.4879C41.1331 28.4884 41.1424 28.4889 41.1516 28.4893C41.1608 28.4897 41.1701 28.4902 41.1793 28.4907C41.1885 28.4911 41.1978 28.4915 41.207 28.492C41.2163 28.4925 41.2256 28.4929 41.2348 28.4933C41.2441 28.4938 41.2533 28.4943 41.2626 28.4947C41.2719 28.4952 41.2812 28.4956 41.2904 28.4961C41.2997 28.4965 41.309 28.497 41.3183 28.4974C41.3276 28.4979 41.3369 28.4983 41.3462 28.4988C41.3555 28.4992 41.3648 28.4997 41.3741 28.5001C41.3834 28.5006 41.3928 28.5011 41.4021 28.5015C41.4114 28.502 41.4207 28.5024 41.4301 28.5029C41.4394 28.5034 41.4487 28.5038 41.4581 28.5042C41.4674 28.5047 41.4768 28.5052 41.4861 28.5056C41.4955 28.5061 41.5048 28.5065 41.5142 28.507C41.5236 28.5074 41.5329 28.5079 41.5423 28.5084C41.5517 28.5088 41.561 28.5093 41.5704 28.5097C41.5798 28.5102 41.5892 28.5106 41.5986 28.5111C41.608 28.5116 41.6174 28.512 41.6268 28.5125C41.6362 28.5129 41.6456 28.5134 41.655 28.5139C41.6644 28.5143 41.6738 28.5148 41.6832 28.5152C41.6927 28.5157 41.7021 28.5161 41.7115 28.5166C41.721 28.5171 41.7304 28.5175 41.7398 28.518C41.7493 28.5185 41.7587 28.5189 41.7682 28.5194C41.7776 28.5198 41.7871 28.5203 41.7965 28.5207C41.806 28.5212 41.8155 28.5217 41.8249 28.5222C41.8344 28.5226 41.8439 28.5231 41.8534 28.5235C41.8628 28.524 41.8723 28.5245 41.8818 28.5249C41.8913 28.5254 41.9008 28.5258 41.9103 28.5263C41.9198 28.5268 41.9293 28.5272 41.9388 28.5277C41.9483 28.5282 41.9579 28.5286 41.9674 28.5291C41.9769 28.5296 41.9864 28.53 41.996 28.5305C42.0055 28.5309 42.015 28.5314 42.0246 28.5319C42.0341 28.5323 42.0436 28.5328 42.0532 28.5333C42.0627 28.5337 42.0723 28.5342 42.0819 28.5347C42.0914 28.5352 42.101 28.5356 42.1106 28.5361C42.1201 28.5366 42.1297 28.537 42.1393 28.5375C42.1489 28.538 42.1585 28.5384 42.168 28.5389C42.1776 28.5394 42.1872 28.5398 42.1968 28.5403C42.2064 28.5408 42.216 28.5412 42.2256 28.5417C42.2353 28.5422 42.2449 28.5426 42.2545 28.5431C42.2641 28.5436 42.2737 28.544 42.2834 28.5445C42.293 28.545 42.3026 28.5454 42.3123 28.5459C42.3219 28.5464 42.3316 28.5469 42.3412 28.5473C42.3509 28.5478 42.3605 28.5483 42.3702 28.5487C42.3798 28.5492 42.3895 28.5497 42.3992 28.5502C42.4088 28.5506 42.4185 28.5511 42.4282 28.5516C42.4379 28.552 42.4476 28.5525 42.4572 28.553C42.4669 28.5535 42.4766 28.5539 42.4863 28.5544C42.496 28.5549 42.5057 28.5554 42.5154 28.5558C42.5252 28.5563 42.5349 28.5568 42.5446 28.5572C42.5543 28.5577 42.564 28.5582 42.5738 28.5587C42.5835 28.5591 42.5932 28.5596 42.603 28.5601C42.6127 28.5606 42.6224 28.5611 42.6322 28.5615C42.6419 28.562 42.6517 28.5625 42.6615 28.563C42.6712 28.5634 42.681 28.5639 42.6907 28.5644C42.7005 28.5648 42.7103 28.5653 42.7201 28.5658C42.7298 28.5663 42.7396 28.5668 42.7494 28.5672C42.7592 28.5677 42.769 28.5682 42.7788 28.5687C42.7886 28.5691 42.7984 28.5696 42.8082 28.5701C42.818 28.5706 42.8278 28.5711 42.8377 28.5716C42.8475 28.572 42.8573 28.5725 42.8671 28.573C42.877 28.5735 42.8868 28.5739 42.8966 28.5744C42.9065 28.5749 42.9163 28.5754 42.9262 28.5759C42.936 28.5764 42.9459 28.5768 42.9557 28.5773C42.9656 28.5778 42.9754 28.5783 42.9853 28.5788C42.9952 28.5792 43.005 28.5797 43.0149 28.5802C43.0248 28.5807 43.0347 28.5811 43.0446 28.5816C43.0545 28.5821 43.0644 28.5826 43.0743 28.5831C43.0842 28.5836 43.0941 28.584 43.104 28.5845C43.1139 28.585 43.1238 28.5855 43.1337 28.586C43.1436 28.5865 43.1535 28.5869 43.1635 28.5874C43.1734 28.5879 43.1833 28.5884 43.1933 28.5889C43.2032 28.5894 43.2132 28.5899 43.2231 28.5904C43.233 28.5908 43.243 28.5913 43.253 28.5918C43.2629 28.5923 43.2729 28.5928 43.2829 28.5933C43.2928 28.5937 43.3028 28.5942 43.3128 28.5947C43.3227 28.5952 43.3327 28.5957 43.3427 28.5962C43.3527 28.5967 43.3627 28.5972 43.3727 28.5977C43.3827 28.5981 43.3927 28.5986 43.4027 28.5991C43.4127 28.5996 43.4227 28.6001 43.4327 28.6006C43.4427 28.6011 43.4528 28.6016 43.4628 28.602C43.4728 28.6025 43.4829 28.603 43.4929 28.6035C43.5029 28.604 43.513 28.6045 43.523 28.605C43.5331 28.6055 43.5431 28.606 43.5532 28.6064C43.5632 28.6069 43.5733 28.6074 43.5834 28.6079C43.5934 28.6084 43.6035 28.6089 43.6136 28.6094C43.6237 28.6099 43.6337 28.6104 43.6438 28.6109C43.6539 28.6114 43.664 28.6118 43.6741 28.6124C43.6842 28.6128 43.6943 28.6133 43.7044 28.6138C43.7145 28.6143 43.7246 28.6148 43.7347 28.6153C43.7449 28.6158 43.755 28.6163 43.7651 28.6168C43.7752 28.6173 43.7854 28.6178 43.7955 28.6183C43.8056 28.6188 43.8158 28.6193 43.8259 28.6197C43.8361 28.6202 43.8462 28.6208 43.8564 28.6212C43.8665 28.6217 43.8767 28.6222 43.8869 28.6227L44.033 25.6263ZM30.7485 26.5532L30.7485 27.4102L33.7485 27.4102L33.7485 26.5532L30.7485 26.5532ZM31.7794 28.8349L140.8 64.7309L141.739 61.8814L32.7176 25.9854L31.7794 28.8349ZM139.77 63.3061L139.77 90.3472L142.77 90.3472L142.77 63.3061L139.77 63.3061Z" fill="#5E5CA4"/>
</svg>
