<svg width="181" height="210" viewBox="0 0 181 210" fill="none" xmlns="http://www.w3.org/2000/svg">
<path d="M35.6667 146.45L37.3506 145.608L37.3456 145.599L35.6667 146.45ZM47.497 160.193L46.3939 161.718L46.4017 161.724L46.4095 161.729L47.497 160.193ZM122.661 166.884L123.276 168.664L123.286 168.66L123.295 168.657L122.661 166.884ZM142.617 152.545L144.148 153.641L144.152 153.634L144.157 153.628L142.617 152.545ZM147.039 106.299L145.201 106.707L145.202 106.712L147.039 106.299ZM140.227 82.997L140.227 81.1144L137.568 81.1144L138.452 83.6226L140.227 82.997ZM171.297 82.997L173.037 82.2793L172.557 81.1144L171.297 81.1144L171.297 82.997ZM178.108 105.821L176.256 106.156L176.257 106.166L176.259 106.175L178.108 105.821ZM169.146 175.488L170.725 176.512L170.73 176.506L170.734 176.5L169.146 175.488ZM137.837 201.18L138.558 202.92L138.561 202.918L137.837 201.18ZM7.22624 162.702L5.4966 163.445L7.22624 162.702ZM3.9998 101.519L5.82315 101.988L5.82566 101.978L5.82807 101.968L3.9998 101.519ZM12.9621 76.4246L13.6565 74.6748L12.0247 74.0272L11.265 75.61L12.9621 76.4246ZM43.0756 88.3744L44.7756 89.1829L45.6396 87.3665L43.77 86.6246L43.0756 88.3744ZM29.6017 127.57C29.6017 134.911 31.0468 141.504 33.9878 147.302L37.3456 145.599C34.71 140.403 33.3668 134.409 33.3668 127.57L29.6017 127.57ZM33.9829 147.292C36.8347 152.996 40.9838 157.806 46.3939 161.718L48.6001 158.667C43.6537 155.09 39.916 150.739 37.3505 145.608L33.9829 147.292ZM46.4095 161.729C51.8051 165.548 58.2757 168.421 65.783 170.379L66.7334 166.736C59.5822 164.87 53.5454 162.167 48.5845 158.656L46.4095 161.729ZM65.783 170.379C73.2957 172.339 81.7046 173.308 90.9942 173.308L90.9942 169.543C81.9608 169.543 73.879 168.6 66.7334 166.736L65.783 170.379ZM90.9942 173.308C103.486 173.308 114.262 171.778 123.276 168.664L122.046 165.105C113.534 168.046 103.198 169.543 90.9942 169.543L90.9942 173.308ZM123.295 168.657C132.279 165.442 139.27 160.453 144.148 153.641L141.087 151.449C136.724 157.542 130.41 162.112 122.027 165.112L123.295 168.657ZM144.157 153.628C148.978 146.777 151.311 138.042 151.311 127.57L147.546 127.57C147.546 137.492 145.338 145.407 141.078 151.461L144.157 153.628ZM151.311 127.57C151.311 120.337 150.498 113.109 148.875 105.886L145.202 106.712C146.766 113.67 147.546 120.622 147.546 127.57L151.311 127.57ZM148.876 105.891C147.264 98.6339 144.971 90.7932 142.003 82.3713L138.452 83.6226C141.379 91.9304 143.627 99.6244 145.201 106.707L148.876 105.891ZM140.227 84.8795L171.297 84.8795L171.297 81.1144L140.227 81.1144L140.227 84.8795ZM169.556 83.7146C172.697 91.3309 174.927 98.8108 176.256 106.156L179.961 105.486C178.58 97.8542 176.27 90.1181 173.037 82.2793L169.556 83.7146ZM176.259 106.175C177.666 113.525 178.377 121.808 178.377 131.035L182.142 131.035C182.142 121.621 181.418 113.095 179.957 105.467L176.259 106.175ZM178.377 131.035C178.377 148.789 174.724 163.227 167.558 174.477L170.734 176.5C178.386 164.487 182.142 149.29 182.142 131.035L178.377 131.035ZM167.566 174.464C160.296 185.679 150.166 194.004 137.113 199.443L138.561 202.918C152.276 197.204 163.019 188.4 170.725 176.512L167.566 174.464ZM137.117 199.441C123.928 204.904 108.488 207.663 90.7552 207.663L90.7552 211.428C108.872 211.428 124.82 208.61 138.558 202.92L137.117 199.441ZM90.7552 207.663C77.701 207.663 65.792 205.893 55.0115 202.378L53.8443 205.958C65.0514 209.612 77.3605 211.428 90.7552 211.428L90.7552 207.663ZM55.0115 202.378C44.2334 198.863 34.9377 193.722 27.0965 186.968L24.6393 189.82C32.8905 196.928 42.6347 202.302 53.8443 205.958L55.0115 202.378ZM27.0965 186.968C19.2769 180.232 13.2298 171.905 8.95588 161.959L5.4966 163.445C9.98588 173.893 16.3665 182.694 24.6393 189.82L27.0965 186.968ZM8.95588 161.959C4.69257 152.037 2.53641 140.587 2.53641 127.57L-1.22869 127.57C-1.22869 141.002 0.996739 152.973 5.4966 163.445L8.95588 161.959ZM2.53641 127.57C2.53641 119.049 3.63055 110.523 5.82315 101.988L2.17645 101.051C-0.0922062 109.882 -1.22869 118.723 -1.22869 127.57L2.53641 127.57ZM5.82807 101.968C7.94872 93.3282 10.8928 85.0862 14.6593 77.2392L11.265 75.61C7.38365 83.696 4.35279 92.1837 2.17152 101.07L5.82807 101.968ZM12.2678 78.1744L42.3812 90.1242L43.77 86.6246L13.6565 74.6748L12.2678 78.1744ZM41.3755 87.5658C38.2405 94.1575 35.5059 100.792 33.1725 107.471L36.7269 108.712C39.0142 102.166 41.6968 95.6564 44.7756 89.1829L41.3755 87.5658ZM33.1725 107.471C30.7994 114.263 29.6017 120.965 29.6017 127.57L33.3668 127.57C33.3668 121.428 34.4795 115.145 36.7269 108.712L33.1725 107.471ZM8.8992 -44.3877L10.6636 -43.7312L10.6652 -43.7356L8.8992 -44.3877ZM91.5917 -58.4884L93.0341 -59.6982L91.5917 -58.4884ZM101.749 -42.4757L100.038 -41.6914L100.962 -39.6735L102.802 -40.9154L101.749 -42.4757ZM177.869 -93.8598L179.752 -93.8598L179.752 -97.4019L176.816 -95.4201L177.869 -93.8598ZM177.869 -52.7525L178.864 -51.1541L179.752 -51.7066L179.752 -52.7525L177.869 -52.7525ZM110.831 -11.0478L109.836 -12.6463L108.948 -12.0938L108.948 -11.0478L110.831 -11.0478ZM110.831 8.66932L108.948 8.66932L108.948 10.5519L110.831 10.5519L110.831 8.66932ZM177.869 8.66932L179.752 8.66932L179.752 6.78678L177.869 6.78678L177.869 8.66932ZM177.869 45.7136L177.869 47.5962L179.752 47.5962L179.752 45.7136L177.869 45.7136ZM3.16331 45.7137L1.28076 45.7137L1.28076 47.5962L3.16331 47.5962L3.16331 45.7137ZM33.5158 8.66932L31.6332 8.66932L31.6332 10.5519L33.5158 10.5519L33.5158 8.66932ZM80.7174 8.66932L80.7174 10.5519L82.5999 10.5519L82.5999 8.66932L80.7174 8.66932ZM74.623 -29.57L76.1126 -30.7211L76.1102 -30.7242L74.623 -29.57ZM38.7737 -28.9725L40.3739 -27.9808L40.38 -27.9908L38.7737 -28.9725ZM5.04586 -5.19242C5.04586 -20.9129 6.94431 -33.7357 10.6636 -43.7312L7.13483 -45.0442C3.20623 -34.4861 1.28076 -21.1787 1.28076 -5.19242L5.04586 -5.19242ZM10.6652 -43.7356C14.3772 -53.789 19.9279 -61.1152 27.2518 -65.872L25.201 -69.0295C17.0698 -63.7485 11.069 -55.6993 7.13319 -45.0398L10.6652 -43.7356ZM27.2518 -65.872C34.5992 -70.644 43.976 -73.0966 55.5033 -73.0966L55.5033 -76.8617C43.4498 -76.8617 33.3086 -74.2953 25.201 -69.0295L27.2518 -65.872ZM55.5033 -73.0966C63.2298 -73.0966 69.8989 -71.6295 75.5646 -68.7589L77.2663 -72.1175C70.9822 -75.3015 63.7099 -76.8617 55.5033 -76.8617L55.5033 -73.0966ZM75.5646 -68.7589C81.3217 -65.842 86.1765 -62.0154 90.1493 -57.2787L93.0341 -59.6982C88.7217 -64.8399 83.459 -68.9799 77.2663 -72.1175L75.5646 -68.7589ZM90.1493 -57.2787C94.186 -52.4657 97.4804 -47.2708 100.038 -41.6914L103.46 -43.2601C100.76 -49.1525 97.2826 -54.6327 93.0341 -59.6982L90.1493 -57.2787ZM102.802 -40.9154L178.922 -92.2995L176.816 -95.4201L100.696 -44.036L102.802 -40.9154ZM175.987 -93.8598L175.987 -52.7525L179.752 -52.7525L179.752 -93.8598L175.987 -93.8598ZM176.875 -54.351L109.836 -12.6463L111.825 -9.44933L178.864 -51.1541L176.875 -54.351ZM108.948 -11.0478L108.948 8.66932L112.713 8.66932L112.713 -11.0478L108.948 -11.0478ZM110.831 10.5519L177.869 10.5519L177.869 6.78678L110.831 6.78678L110.831 10.5519ZM175.987 8.66932L175.987 45.7136L179.752 45.7136L179.752 8.66932L175.987 8.66932ZM177.869 43.8311L3.16331 43.8311L3.16331 47.5962L177.869 47.5962L177.869 43.8311ZM5.04586 45.7137L5.04586 -5.19242L1.28076 -5.19242L1.28076 45.7137L5.04586 45.7137ZM31.6332 -2.56347L31.6332 8.66932L35.3983 8.66932L35.3983 -2.56347L31.6332 -2.56347ZM33.5158 10.5519L80.7174 10.5519L80.7174 6.78678L33.5158 6.78678L33.5158 10.5519ZM82.5999 8.66932L82.5999 -3.28045L78.8348 -3.28045L78.8348 8.66932L82.5999 8.66932ZM82.5999 -3.28045C82.5999 -15.658 80.5698 -24.953 76.1126 -30.721L73.1334 -28.4189C76.8021 -23.6711 78.8348 -15.4398 78.8348 -3.28045L82.5999 -3.28045ZM76.1102 -30.7242C71.5449 -36.6064 64.8905 -39.4589 56.4593 -39.4589L56.4593 -35.6938C63.9612 -35.6938 69.4159 -33.2087 73.1358 -28.4157L76.1102 -30.7242ZM56.4593 -39.4589C47.6949 -39.4589 41.0975 -36.3854 37.1673 -29.9541L40.38 -27.9908C43.4603 -33.0314 48.6534 -35.6938 56.4593 -35.6938L56.4593 -39.4589ZM37.1735 -29.9641C33.3883 -23.8563 31.6332 -14.6229 31.6332 -2.56347L35.3983 -2.56347C35.3983 -14.4036 37.1484 -22.7762 40.3738 -27.9808L37.1735 -29.9641ZM177.869 -189.817L178.421 -188.017L179.752 -188.425L179.752 -189.817L177.869 -189.817ZM40.8051 -147.753L40.2528 -149.553L38.9226 -149.145L38.9226 -147.753L40.8051 -147.753ZM40.8051 -146.678L38.9226 -146.678L38.9226 -144.701L40.8968 -144.798L40.8051 -146.678ZM55.6228 -147.395L55.7135 -145.514L55.7254 -145.515L55.7374 -145.516L55.6228 -147.395ZM177.869 -148.948L179.752 -148.948L179.752 -150.831L177.869 -150.831L177.869 -148.948ZM177.869 -115.847L177.869 -113.965L179.752 -113.965L179.752 -115.847L177.869 -115.847ZM3.1633 -115.847L1.28075 -115.847L1.28075 -113.965L3.1633 -113.965L3.1633 -115.847ZM3.1633 -166.275L2.60673 -168.074L1.28075 -167.664L1.28075 -166.275L3.1633 -166.275ZM136.762 -207.622L137.318 -205.823L138.644 -206.234L138.644 -207.622L136.762 -207.622ZM136.762 -208.339L138.644 -208.339L138.644 -209.702L137.349 -210.127L136.762 -208.339ZM3.16329 -252.194L1.28075 -252.194L1.28075 -250.831L2.57615 -250.406L3.16329 -252.194ZM3.16329 -302.623L3.16329 -304.505L1.28075 -304.505L1.28075 -302.623L3.16329 -302.623ZM177.869 -302.623L179.752 -302.623L179.752 -304.505L177.869 -304.505L177.869 -302.623ZM177.869 -268.088L177.869 -266.205L179.752 -266.205L179.752 -268.088L177.869 -268.088ZM76.1765 -268.327L76.1137 -266.445L76.1242 -266.445L76.1346 -266.445L76.1765 -268.327ZM55.7423 -269.163L55.8352 -271.043L55.8341 -271.043L55.7423 -269.163ZM41.0441 -269.88L41.1358 -271.76L39.1616 -271.857L39.1616 -269.88L41.0441 -269.88ZM41.0441 -268.805L39.1616 -268.805L39.1616 -267.442L40.4553 -267.016L41.0441 -268.805ZM177.869 -223.754L179.752 -223.754L179.752 -225.116L178.458 -225.542L177.869 -223.754ZM177.317 -191.616L40.2528 -149.553L41.3574 -145.954L178.421 -188.017L177.317 -191.616ZM38.9226 -147.753L38.9226 -146.678L42.6877 -146.678L42.6877 -147.753L38.9226 -147.753ZM40.8968 -144.798C44.1625 -144.957 49.1013 -145.196 55.7135 -145.514L55.5322 -149.275C48.9199 -148.957 43.9802 -148.718 40.7134 -148.558L40.8968 -144.798ZM55.7374 -145.516C62.2574 -145.913 69.2168 -146.271 76.6158 -146.589L76.4541 -150.351C69.0354 -150.032 62.0534 -149.673 55.5083 -149.274L55.7374 -145.516ZM76.6158 -146.589C84.0039 -146.907 90.6682 -147.066 96.6106 -147.066L96.6106 -150.831C90.6032 -150.831 83.8838 -150.671 76.4541 -150.351L76.6158 -146.589ZM96.6106 -147.066L177.869 -147.066L177.869 -150.831L96.6106 -150.831L96.6106 -147.066ZM175.987 -148.948L175.987 -115.847L179.752 -115.847L179.752 -148.948L175.987 -148.948ZM177.869 -117.73L3.1633 -117.73L3.1633 -113.965L177.869 -113.965L177.869 -117.73ZM5.04585 -115.847L5.04585 -166.275L1.28075 -166.275L1.28075 -115.847L5.04585 -115.847ZM3.71987 -164.477L137.318 -205.823L136.205 -209.42L2.60673 -168.074L3.71987 -164.477ZM138.644 -207.622L138.644 -208.339L134.879 -208.339L134.879 -207.622L138.644 -207.622ZM137.349 -210.127L3.75044 -253.983L2.57615 -250.406L136.175 -206.55L137.349 -210.127ZM5.04585 -252.194L5.04584 -302.623L1.28075 -302.623L1.28075 -252.194L5.04585 -252.194ZM3.16329 -300.74L177.869 -300.74L177.869 -304.505L3.16329 -304.505L3.16329 -300.74ZM175.987 -302.623L175.987 -268.088L179.752 -268.088L179.752 -302.623L175.987 -302.623ZM177.869 -269.97L95.1766 -269.97L95.1766 -266.205L177.869 -266.205L177.869 -269.97ZM95.1766 -269.97C89.6971 -269.97 83.3781 -270.05 76.2183 -270.209L76.1346 -266.445C83.3145 -266.285 89.6623 -266.205 95.1766 -266.205L95.1766 -269.97ZM76.2392 -270.208C69.0783 -270.447 62.277 -270.725 55.8352 -271.043L55.6495 -267.283C62.1134 -266.964 68.9349 -266.684 76.1137 -266.445L76.2392 -270.208ZM55.8341 -271.043C55.708 -271.05 55.8071 -271.045 55.6813 -271.051C55.601 -271.055 55.609 -271.054 55.529 -271.058C55.5065 -271.059 55.4756 -271.061 55.4531 -271.062C55.422 -271.064 55.4086 -271.064 55.3774 -271.066C55.2529 -271.072 55.3507 -271.067 55.2264 -271.073C55.1422 -271.077 55.16 -271.076 55.076 -271.08C55.055 -271.081 55.022 -271.083 55.001 -271.084C54.969 -271.086 54.9582 -271.086 54.9262 -271.088C54.8056 -271.094 54.8974 -271.089 54.777 -271.095C54.6913 -271.099 54.7138 -271.098 54.6283 -271.102C54.6112 -271.103 54.5713 -271.105 54.5543 -271.106C54.5214 -271.107 54.5131 -271.108 54.4803 -271.109C54.3612 -271.115 54.4518 -271.111 54.3329 -271.117C54.2483 -271.121 54.2705 -271.12 54.1861 -271.124C54.1704 -271.125 54.1285 -271.127 54.1129 -271.127C54.0768 -271.129 54.0759 -271.129 54.0398 -271.131C53.9245 -271.137 54.0093 -271.132 53.8942 -271.138C53.8082 -271.142 53.8349 -271.141 53.7492 -271.145C53.7361 -271.146 53.6899 -271.148 53.6769 -271.149C53.6389 -271.15 53.6427 -271.15 53.6047 -271.152C53.498 -271.157 53.5675 -271.154 53.4609 -271.159C53.3737 -271.163 53.4047 -271.162 53.3177 -271.166C53.3083 -271.167 53.2556 -271.169 53.2463 -271.17C53.2076 -271.172 53.2137 -271.171 53.175 -271.173C53.0696 -271.178 53.1382 -271.175 53.033 -271.18C52.9468 -271.184 52.9775 -271.183 52.8915 -271.187C52.8834 -271.187 52.8291 -271.19 52.821 -271.19C52.7793 -271.192 52.7923 -271.192 52.7507 -271.194C52.6489 -271.199 52.712 -271.196 52.6104 -271.201C52.5679 -271.203 52.5831 -271.202 52.5405 -271.204C52.5289 -271.205 52.5173 -271.205 52.5056 -271.206C52.494 -271.206 52.4824 -271.207 52.4708 -271.207C52.4651 -271.208 52.4069 -271.211 52.4012 -271.211C52.3577 -271.213 52.3751 -271.212 52.3317 -271.214C52.2335 -271.219 52.2913 -271.216 52.1933 -271.221C52.1501 -271.223 52.1674 -271.222 52.1243 -271.224C52.1128 -271.225 52.1013 -271.225 52.0898 -271.226C52.0784 -271.227 52.0669 -271.227 52.0554 -271.228C52.0532 -271.228 51.9889 -271.231 51.9867 -271.231C51.9427 -271.233 51.9621 -271.232 51.9182 -271.234C51.8212 -271.239 51.8783 -271.236 51.7815 -271.241C51.7367 -271.243 51.7582 -271.242 51.7134 -271.244C51.7021 -271.245 51.6907 -271.246 51.6794 -271.246C51.6681 -271.247 51.6568 -271.247 51.6455 -271.248C51.6443 -271.248 51.5787 -271.251 51.5776 -271.251C51.5309 -271.253 51.5567 -271.252 51.51 -271.254C51.4165 -271.259 51.4684 -271.256 51.3751 -271.261C51.3703 -271.261 51.2454 -271.267 51.2409 -271.267C51.2297 -271.268 51.2185 -271.269 51.2074 -271.269C51.1962 -271.27 51.1851 -271.27 51.1739 -271.271C51.1256 -271.273 51.1555 -271.272 51.1072 -271.274C51.0216 -271.278 51.0595 -271.276 50.9741 -271.28C50.969 -271.281 50.7141 -271.293 50.7098 -271.293C50.6275 -271.297 50.6606 -271.296 50.5785 -271.3C50.5719 -271.3 50.4542 -271.306 50.4478 -271.306C50.4103 -271.308 50.4202 -271.308 50.3827 -271.309C50.3303 -271.312 50.3701 -271.31 50.3177 -271.313C50.2366 -271.316 50.2692 -271.315 50.1882 -271.319C50.179 -271.319 49.9395 -271.331 49.9311 -271.331C49.8458 -271.336 49.8885 -271.333 49.8034 -271.338C49.7989 -271.338 49.6806 -271.344 49.6763 -271.344C49.6362 -271.346 49.653 -271.345 49.613 -271.347C49.5644 -271.349 49.5983 -271.348 49.5498 -271.35C49.4657 -271.354 49.5078 -271.352 49.4239 -271.356C49.4104 -271.357 49.1867 -271.368 49.1739 -271.368C49.0952 -271.372 49.1283 -271.371 49.0498 -271.374C49.0412 -271.375 48.9347 -271.38 48.9263 -271.38C48.8916 -271.382 48.8995 -271.382 48.8648 -271.383C48.8092 -271.386 48.8589 -271.384 48.8034 -271.386C48.7259 -271.39 48.7585 -271.389 48.6811 -271.392C48.6597 -271.393 48.4589 -271.403 48.4383 -271.404C48.366 -271.408 48.3899 -271.407 48.3178 -271.41C48.2971 -271.411 48.2183 -271.415 48.1979 -271.416C48.1723 -271.417 48.1636 -271.418 48.1381 -271.419C48.1282 -271.419 48.1182 -271.42 48.1083 -271.42C48.0984 -271.421 48.0885 -271.421 48.0785 -271.422C48.0073 -271.425 48.0308 -271.424 47.9598 -271.428C47.939 -271.429 47.7442 -271.438 47.7242 -271.439C47.6581 -271.442 47.6732 -271.442 47.6073 -271.445C47.5833 -271.446 47.5147 -271.449 47.4909 -271.45C47.4701 -271.451 47.4538 -271.452 47.433 -271.453C47.4234 -271.454 47.4137 -271.454 47.4041 -271.455C47.3945 -271.455 47.3848 -271.456 47.3752 -271.456C47.318 -271.459 47.3171 -271.459 47.2601 -271.462C47.0668 -271.471 46.5412 -271.497 46.3606 -271.506C46.3136 -271.508 46.2977 -271.509 46.2508 -271.511C46.2209 -271.512 46.1715 -271.515 46.1417 -271.516C46.1333 -271.517 46.0957 -271.518 46.0873 -271.519C46.0783 -271.519 46.0693 -271.52 46.0602 -271.52C46.0512 -271.521 46.0422 -271.521 46.0331 -271.521C45.9869 -271.524 45.9713 -271.525 45.9252 -271.527C45.8916 -271.528 45.7438 -271.536 45.7111 -271.537C45.6692 -271.539 45.6466 -271.54 45.6049 -271.542C45.5651 -271.544 45.5389 -271.546 45.4994 -271.548C45.4985 -271.548 45.4477 -271.55 45.4468 -271.55C45.4381 -271.551 45.4293 -271.551 45.4206 -271.551C45.4119 -271.552 45.4031 -271.552 45.3944 -271.553C45.3532 -271.555 45.331 -271.556 45.29 -271.558C45.2576 -271.559 45.1148 -271.566 45.0831 -271.568C45.0532 -271.569 45.0102 -271.571 44.9805 -271.573C44.9386 -271.575 44.9203 -271.576 44.8786 -271.578C44.8701 -271.578 44.8616 -271.579 44.8532 -271.579C44.8447 -271.579 44.8362 -271.58 44.8278 -271.58C44.8194 -271.581 44.8109 -271.581 44.8025 -271.582C44.794 -271.582 44.7856 -271.582 44.7772 -271.583C44.677 -271.588 44.7764 -271.583 44.6764 -271.588C44.4804 -271.597 44.075 -271.617 43.8917 -271.626C43.8034 -271.63 43.8845 -271.626 43.7963 -271.631C43.7412 -271.633 43.7565 -271.633 43.7016 -271.635C43.6937 -271.636 43.6858 -271.636 43.6779 -271.636C43.6701 -271.637 43.6622 -271.637 43.6544 -271.638C43.6465 -271.638 43.6387 -271.638 43.6309 -271.639C43.623 -271.639 43.6152 -271.639 43.6074 -271.64C43.5239 -271.644 43.597 -271.64 43.5138 -271.644C43.4594 -271.647 43.3819 -271.651 43.3284 -271.653C43.2559 -271.657 43.3088 -271.654 43.2366 -271.658C43.1804 -271.661 43.2013 -271.66 43.1453 -271.662C43.1391 -271.663 43.1061 -271.664 43.1 -271.665C43.0924 -271.665 43.0849 -271.665 43.0773 -271.666C43.0698 -271.666 43.0623 -271.666 43.0547 -271.667C42.9868 -271.67 43.0325 -271.668 42.9647 -271.671C42.9064 -271.674 42.844 -271.677 42.7865 -271.68C42.7199 -271.683 42.7647 -271.681 42.6983 -271.684C42.6384 -271.687 42.6704 -271.686 42.6107 -271.688C42.6092 -271.689 42.5685 -271.69 42.5671 -271.691C42.5656 -271.691 42.5251 -271.693 42.5237 -271.693C42.4614 -271.696 42.4993 -271.694 42.4372 -271.697C42.2687 -271.705 41.9231 -271.722 41.7674 -271.73C41.7229 -271.732 41.7306 -271.731 41.6863 -271.734C41.6177 -271.737 41.6744 -271.734 41.6059 -271.737C41.5992 -271.738 41.5926 -271.738 41.5859 -271.738C41.5792 -271.739 41.5726 -271.739 41.5659 -271.739C41.5593 -271.74 41.5526 -271.74 41.546 -271.74C41.5393 -271.741 41.5327 -271.741 41.5261 -271.741C41.4853 -271.743 41.4874 -271.743 41.4468 -271.745C41.3689 -271.749 41.3672 -271.749 41.2901 -271.753C41.2529 -271.755 41.2497 -271.755 41.2127 -271.757C41.1366 -271.76 41.2117 -271.757 41.1358 -271.76L40.9524 -268C40.9785 -267.998 41.234 -267.986 41.2634 -267.985C41.4493 -267.976 41.3949 -267.978 41.5839 -267.969C41.5999 -267.968 41.6086 -267.968 41.6247 -267.967C41.6358 -267.966 41.6544 -267.966 41.6656 -267.965C41.667 -267.965 41.7052 -267.963 41.7066 -267.963C41.7135 -267.963 41.7203 -267.962 41.7272 -267.962C41.7341 -267.962 41.7409 -267.961 41.7478 -267.961C41.8071 -267.958 41.854 -267.956 41.9141 -267.953C41.9542 -267.951 42.2105 -267.938 42.2538 -267.936C42.4151 -267.928 42.7879 -267.91 42.9619 -267.902C43.0178 -267.899 43.2712 -267.887 43.3303 -267.884C43.4972 -267.876 43.5382 -267.874 43.7083 -267.865C43.7263 -267.864 43.7382 -267.864 43.7562 -267.863C43.7685 -267.862 43.7919 -267.861 43.8043 -267.861C43.8123 -267.86 43.8203 -267.86 43.8284 -267.859C43.8364 -267.859 43.8445 -267.859 43.8525 -267.858C43.8707 -267.857 43.8827 -267.857 43.9009 -267.856C43.937 -267.854 44.059 -267.848 44.0958 -267.846C44.1965 -267.842 44.3892 -267.832 44.493 -267.827C44.6529 -267.819 45.1432 -267.795 45.3159 -267.787C45.4383 -267.781 45.6162 -267.772 45.7417 -267.766C45.9191 -267.757 45.9966 -267.754 46.1771 -267.745C46.1875 -267.744 46.2218 -267.743 46.2322 -267.742C46.2414 -267.742 46.2506 -267.741 46.2598 -267.741C46.2691 -267.74 46.2783 -267.74 46.2875 -267.74C46.3263 -267.738 46.304 -267.739 46.3429 -267.737C46.3552 -267.736 46.386 -267.735 46.3984 -267.734C46.4245 -267.733 46.5952 -267.724 46.6221 -267.723C46.7528 -267.717 46.9428 -267.708 47.0766 -267.701C47.2602 -267.692 47.8181 -267.665 48.0144 -267.655C48.1698 -267.648 48.3391 -267.639 48.4977 -267.632C48.6816 -267.623 48.8033 -267.617 48.9905 -267.608C49.0778 -267.603 49.0277 -267.606 49.1152 -267.602C49.1611 -267.599 49.1317 -267.601 49.1777 -267.599C49.1882 -267.598 49.1986 -267.598 49.2091 -267.597C49.2195 -267.596 49.23 -267.596 49.2405 -267.595C49.4131 -267.587 49.3195 -267.592 49.4929 -267.583C49.6576 -267.575 49.8369 -267.566 50.0048 -267.558C50.1749 -267.55 50.3531 -267.541 50.5263 -267.533C50.6186 -267.528 50.5657 -267.531 50.6582 -267.526C50.7045 -267.524 50.678 -267.525 50.7244 -267.523C50.7354 -267.523 50.7464 -267.522 50.7575 -267.521C50.7685 -267.521 50.7796 -267.52 50.7907 -267.52C50.9731 -267.511 50.8742 -267.516 51.0574 -267.507C51.2223 -267.499 51.43 -267.489 51.5981 -267.48C51.7776 -267.472 51.9656 -267.463 52.1483 -267.454C52.1529 -267.453 52.4216 -267.44 52.427 -267.44C52.6074 -267.431 52.5269 -267.435 52.7081 -267.426C52.894 -267.417 53.0884 -267.408 53.2775 -267.399C53.4568 -267.39 53.6738 -267.379 53.8564 -267.37C53.866 -267.37 54.139 -267.357 54.1495 -267.356C54.3293 -267.347 54.2642 -267.35 54.4449 -267.342C54.6695 -267.331 54.8152 -267.324 55.043 -267.312C55.2212 -267.304 55.4692 -267.292 55.6506 -267.283L55.8341 -271.043ZM39.1616 -269.88L39.1616 -268.805L42.9267 -268.805L42.9267 -269.88L39.1616 -269.88ZM40.4553 -267.016L177.28 -221.966L178.458 -225.542L41.6329 -270.593L40.4553 -267.016ZM175.987 -223.754L175.987 -189.817L179.752 -189.817L179.752 -223.754L175.987 -223.754Z" fill="#5E5CA4"/>
</svg>
