<svg width="51" height="54" viewBox="0 0 51 54" fill="none" xmlns="http://www.w3.org/2000/svg">
<path d="M39.0824 9.99959C38.4891 9.99959 37.9091 10.1829 37.4157 10.5263C36.9224 10.8697 36.5378 11.3578 36.3108 11.9288C36.0837 12.4999 36.0243 13.1283 36.1401 13.7345C36.2558 14.3407 36.5415 14.8976 36.9611 15.3346C37.3807 15.7717 37.9152 16.0693 38.4972 16.1899C39.0791 16.3105 39.6823 16.2486 40.2305 16.0121C40.7787 15.7755 41.2472 15.375 41.5768 14.861C41.9065 14.3471 42.0824 13.7429 42.0824 13.1248C42.0824 12.2959 41.7664 11.501 41.2037 10.9149C40.6411 10.3289 39.8781 9.99959 39.0824 9.99959V9.99959ZM50.5824 16.3021C50.5338 14.1412 50.1453 12.0034 49.4324 9.97355C48.7968 8.23681 47.8074 6.66417 46.5324 5.36389C45.2945 4.02898 43.7813 3.00483 42.1074 2.36891C40.1641 1.60366 38.1095 1.1897 36.0324 1.14488C33.3824 0.988617 32.5324 0.988617 25.7324 0.988617C18.9324 0.988617 18.0824 0.988617 15.4324 1.14488C13.3553 1.1897 11.3008 1.60366 9.35742 2.36891C7.68661 3.01126 6.17476 4.03454 4.93242 5.36389C3.65099 6.65349 2.66786 8.22979 2.05742 9.97355C1.32282 11.998 0.925447 14.1383 0.882422 16.3021C0.732422 19.0627 0.732422 19.9481 0.732422 27.0319C0.732422 34.1157 0.732422 35.0011 0.882422 37.7617C0.925447 39.9255 1.32282 42.0658 2.05742 44.0902C2.66786 45.834 3.65099 47.4103 4.93242 48.6999C6.17476 50.0293 7.68661 51.0525 9.35742 51.6949C11.3008 52.4601 13.3553 52.8741 15.4324 52.9189C18.0824 53.0752 18.9324 53.0752 25.7324 53.0752C32.5324 53.0752 33.3824 53.0752 36.0324 52.9189C38.1095 52.8741 40.1641 52.4601 42.1074 51.6949C43.7813 51.059 45.2945 50.0348 46.5324 48.6999C47.813 47.4045 48.8033 45.8304 49.4324 44.0902C50.1453 42.0604 50.5338 39.9225 50.5824 37.7617C50.5824 35.0011 50.7324 34.1157 50.7324 27.0319C50.7324 19.9481 50.7324 19.0627 50.5824 16.3021V16.3021ZM46.0824 37.4492C46.0642 39.1024 45.7768 40.7403 45.2324 42.2933C44.8333 43.4266 44.1921 44.4507 43.3574 45.2882C42.5465 46.149 41.5655 46.8155 40.4824 47.2415C38.9917 47.8086 37.4194 48.108 35.8324 48.1269C33.3324 48.2572 32.4074 48.2832 25.8324 48.2832C19.2574 48.2832 18.3324 48.2832 15.8324 48.1269C14.1846 48.1591 12.5439 47.8948 10.9824 47.3456C9.94688 46.8979 9.01081 46.233 8.23242 45.3924C7.40264 44.5558 6.76953 43.5308 6.38242 42.3974C5.77206 40.8222 5.43353 39.1471 5.38242 37.4492C5.38242 34.8449 5.23242 33.8813 5.23242 27.0319C5.23242 20.1825 5.23242 19.2189 5.38242 16.6146C5.39363 14.9245 5.6898 13.2496 6.25742 11.6664C6.69754 10.5671 7.37308 9.58722 8.23242 8.8016C8.99196 7.90615 9.93064 7.19498 10.9824 6.71814C12.5063 6.1453 14.1124 5.8459 15.7324 5.83267C18.2324 5.83267 19.1574 5.67641 25.7324 5.67641C32.3074 5.67641 33.2324 5.67641 35.7324 5.83267C37.3193 5.85163 38.8917 6.15104 40.3824 6.71814C41.5185 7.15736 42.5382 7.87146 43.3574 8.8016C44.1767 9.60159 44.8168 10.5797 45.2324 11.6664C45.7881 13.2522 46.0756 14.9264 46.0824 16.6146C46.2074 19.2189 46.2324 20.1825 46.2324 27.0319C46.2324 33.8813 46.2074 34.8449 46.0824 37.4492ZM25.7324 13.6717C23.1969 13.6768 20.7198 14.4648 18.6141 15.9359C16.5083 17.4071 14.8684 19.4955 13.9015 21.9372C12.9346 24.3789 12.6842 27.0644 13.1819 29.6543C13.6796 32.2442 14.903 34.6223 16.6976 36.4882C18.4922 38.354 20.7774 39.6239 23.2646 40.1373C25.7517 40.6507 28.3291 40.3846 30.6711 39.3726C33.0131 38.3606 35.0146 36.6482 36.4227 34.4517C37.8309 32.2552 38.5824 29.6732 38.5824 27.0319C38.5857 25.2742 38.2554 23.5333 37.6105 21.9091C36.9656 20.2849 36.0188 18.8095 34.8246 17.5679C33.6304 16.3263 32.2123 15.3428 30.6519 14.6742C29.0915 14.0055 27.4197 13.6648 25.7324 13.6717V13.6717ZM25.7324 35.7043C24.0859 35.7043 22.4763 35.1957 21.1073 34.2427C19.7383 33.2898 18.6712 31.9354 18.0411 30.3507C17.411 28.766 17.2462 27.0223 17.5674 25.34C17.8886 23.6577 18.6815 22.1124 19.8458 20.8996C21.01 19.6867 22.4934 18.8607 24.1083 18.5261C25.7232 18.1915 27.3971 18.3632 28.9183 19.0196C30.4395 19.676 31.7396 20.7876 32.6544 22.2138C33.5692 23.6399 34.0574 25.3167 34.0574 27.0319C34.0574 28.1708 33.8421 29.2985 33.4237 30.3507C33.0053 31.4029 32.3921 32.3589 31.6191 33.1642C30.846 33.9695 29.9283 34.6083 28.9183 35.0442C27.9082 35.48 26.8257 35.7043 25.7324 35.7043V35.7043Z" fill="#0D161A"/>
</svg>
