<svg width="51" height="53" viewBox="0 0 51 53" fill="none" xmlns="http://www.w3.org/2000/svg">
<path d="M46.7335 0.00253296H5.00474C2.72461 0.00253296 0.732422 1.71162 0.732422 4.05901V47.6257C0.732422 49.9859 2.72461 52.0891 5.00474 52.0891H46.7212C49.0136 52.0891 50.7323 49.9719 50.7323 47.6257V4.05901C50.7457 1.71162 49.0136 0.00253296 46.7335 0.00253296ZM16.2313 43.4192H9.06835V20.2186H16.2313V43.4192ZM12.8976 16.6912H12.8462C10.5538 16.6912 9.06946 14.9135 9.06946 12.6882C9.06946 10.4222 10.5929 8.68634 12.9366 8.68634C15.2804 8.68634 16.7145 10.4094 16.7659 12.6882C16.7648 14.9135 15.2804 16.6912 12.8976 16.6912ZM42.4098 43.4192H35.2469V30.7336C35.2469 27.6944 34.2045 25.618 31.613 25.618C29.633 25.618 28.4612 27.0131 27.94 28.3723C27.7447 28.8606 27.6922 29.5256 27.6922 30.2046V43.4192H20.5293V20.2186H27.6922V23.4473C28.7346 21.901 30.363 19.6757 34.152 19.6757C38.854 19.6757 42.4109 22.9043 42.4109 29.8651L42.4098 43.4192Z" fill="#0D161A"/>
</svg>
