<svg width="103" height="103" viewBox="0 0 103 103" fill="none" xmlns="http://www.w3.org/2000/svg">
<circle cx="51.4218" cy="51.539" r="50.6894" fill="#0D161A"/>
<path d="M32.9925 79.595C32.5432 78.6888 32.1987 77.7358 31.989 76.7202C31.7494 75.6891 31.6445 74.6267 31.6445 73.5018C31.6445 72.3769 31.8243 70.8927 32.1987 69.0492C32.5731 67.2056 33.0824 65.2527 33.7264 63.2216C34.3704 61.1749 35.1193 59.0814 35.973 56.941C36.8267 54.8006 37.7403 52.7227 38.6989 50.676C40.6609 46.4421 42.623 42.7706 44.585 39.6771H44.2405C41.8441 39.6771 39.6275 40.2396 37.5756 41.3801C37.0813 41.7863 36.6021 41.9738 36.1378 41.9738C35.1792 41.9738 34.2356 41.4738 33.337 40.4895C31.2401 38.1773 32.4982 36.2712 37.0813 34.7714C39.2381 34.0371 40.9605 33.6621 42.2785 33.6621C43.5965 33.6621 44.6599 33.8808 45.4537 34.3027C46.2475 34.7245 46.9365 35.2401 47.5056 35.8338C48.3893 36.7555 49.0183 37.6617 49.3928 38.5679C49.7672 39.474 49.9469 40.2552 49.9469 40.9426C49.9469 41.6301 49.7522 42.5362 49.3628 43.6767C48.9734 44.8172 48.4791 46.0359 47.8651 47.3326L45.8132 51.4884C45.0942 52.9414 44.3604 54.4569 43.6414 56.0505C42.9225 57.6441 42.1886 59.2376 41.4697 60.8312C40.7508 62.4248 40.1068 63.9715 39.5376 65.487C38.3095 68.8617 37.6954 71.7208 37.6954 74.0799C37.6954 75.5016 37.8302 76.6734 38.0848 77.5952C38.9685 76.1266 40.0469 74.5955 41.3349 73.0019L45.5585 68.0649C50.4412 62.5654 53.6164 58.9252 55.0842 57.1285C58.514 52.9102 61.15 48.9418 62.9773 45.2078C63.7261 43.7236 64.0856 42.3644 64.0856 41.1457C64.0856 38.896 63.4865 37.2086 62.3033 36.0837C61.8839 35.6463 61.824 35.1151 62.1385 34.4745C62.4531 33.834 62.7676 33.3809 63.0821 33.0528C63.8609 32.3185 64.7446 31.9435 65.7331 31.9435C66.7216 31.9435 67.5454 32.1466 68.2343 32.5685C68.9233 32.9903 69.4775 33.5215 69.8968 34.1777C70.7655 35.4588 71.1999 37.0368 71.1999 38.9428C71.1999 40.8333 70.8105 42.8487 70.0466 44.9578C69.2678 47.0826 68.2643 49.1449 67.0062 51.176C65.7481 53.1914 64.3252 55.1599 62.7227 57.0504C61.1201 58.9408 59.4875 60.7531 57.825 62.4717L48.7188 71.4395C45.9629 74.3299 44.1207 76.314 43.2071 77.3764C41.4398 79.4387 40.3015 80.7823 39.8072 81.4385C39.313 82.0947 38.8487 82.4697 38.4443 82.5947C38.0399 82.7196 37.5007 82.7821 36.8117 82.7821C36.1228 82.7821 35.4338 82.4697 34.7149 81.8447C34.0259 81.251 33.4418 80.4855 32.9925 79.595Z" fill="white"/>
</svg>
