<svg width="63" height="53" viewBox="0 0 63 53" fill="none" xmlns="http://www.w3.org/2000/svg">
<path d="M62.2709 6.58383C59.9625 7.64502 57.5201 8.34416 55.0209 8.65914C57.6474 7.03196 59.6226 4.44688 60.576 1.38875C58.0928 2.92502 55.3806 4.00293 52.5555 4.57633C51.3659 3.25726 49.9351 2.2079 48.3503 1.49204C46.7654 0.776175 45.0595 0.408763 43.3363 0.412132C36.3593 0.412132 30.7132 6.29898 30.7132 13.5558C30.7082 14.5652 30.8176 15.5716 31.0388 16.5535C26.0359 16.3053 21.1369 14.9551 16.6555 12.589C12.174 10.223 8.20868 6.89331 5.01319 2.81299C3.89213 4.81251 3.29926 7.0939 3.29652 9.41874C3.29652 13.9763 5.54396 18.0049 8.93755 20.365C6.92694 20.3145 4.95754 19.7515 3.19652 18.7238V18.8865C3.19652 25.2617 7.5555 30.5653 13.3247 31.7725C12.2398 32.0785 11.1219 32.2335 9.99909 32.2337C9.20239 32.2351 8.40751 32.1533 7.62601 31.9895C9.22986 37.2117 13.8978 41.0097 19.4273 41.1182C14.9342 44.7818 9.41783 46.7619 3.74524 46.7473C2.73834 46.7457 1.73238 46.6823 0.732422 46.5574C6.50316 50.4561 13.2112 52.5182 20.0581 52.4985C43.3093 52.4985 56.0119 32.4643 56.0119 15.0886C56.0119 14.5189 55.9978 13.9492 55.9722 13.393C58.4377 11.5375 60.5706 9.2317 62.2709 6.58383V6.58383Z" fill="#0D161A"/>
</svg>
